<?xml version="1.0" encoding="UTF-8" standalone="no"?>
<!-- Created with Inkscape (http://www.inkscape.org/) -->

<svg
   xmlns:dc="http://purl.org/dc/elements/1.1/"
   xmlns:cc="http://creativecommons.org/ns#"
   xmlns:rdf="http://www.w3.org/1999/02/22-rdf-syntax-ns#"
   xmlns:svg="http://www.w3.org/2000/svg"
   xmlns="http://www.w3.org/2000/svg"
   xmlns:xlink="http://www.w3.org/1999/xlink"
   xmlns:sodipodi="http://sodipodi.sourceforge.net/DTD/sodipodi-0.dtd"
   xmlns:inkscape="http://www.inkscape.org/namespaces/inkscape"
   id="svg2"
   sodipodi:docname="dodom01_tweety_.svg"
   viewBox="0 0 225 254"
   sodipodi:version="0.32"
   version="1.0"
   inkscape:output_extension="org.inkscape.output.svg.inkscape"
   inkscape:version="0.48.4 r9939"
   width="100%"
   height="100%">
  <defs
     id="defs4">
    <linearGradient
       id="linearGradient3238"
       inkscape:collect="always">
      <stop
         id="stop3240"
         style="stop-color:rgb(0, 136, 170)"
         offset="0" />
      <stop
         id="stop3242"
         style="stop-color:rgb(0, 68, 170)"
         offset="1" />
    </linearGradient>
    <radialGradient
       id="radialGradient3244"
       xlink:href="#linearGradient3238"
       gradientUnits="userSpaceOnUse"
       cy="261.42999"
       cx="214.5"
       gradientTransform="matrix(3.9771082,0.03157474,-0.01463678,1.4402317,-607.19509,-64.307563)"
       r="35.886002"
       inkscape:collect="always" />
    <radialGradient
       id="radialGradient3246"
       xlink:href="#linearGradient3238"
       gradientUnits="userSpaceOnUse"
       cy="161.99001"
       cx="205.49001"
       gradientTransform="matrix(3.176683,-0.01307674,0.00678042,2.1667119,-426.72876,-152.83247)"
       r="34.339001"
       inkscape:collect="always" />
    <radialGradient
       inkscape:collect="always"
       xlink:href="#linearGradient3238"
       id="radialGradient3929"
       gradientUnits="userSpaceOnUse"
       gradientTransform="matrix(3.9771082,0.03157474,-0.01463678,1.4402317,-607.19509,-64.307563)"
       cx="214.5"
       cy="261.42999"
       r="35.886002" />
    <radialGradient
       inkscape:collect="always"
       xlink:href="#linearGradient3238"
       id="radialGradient3996"
       gradientUnits="userSpaceOnUse"
       gradientTransform="matrix(3.6839986,0.02924771,-0.01355806,1.3340879,-527.55891,-46.239536)"
       cx="214.5"
       cy="261.42999"
       r="35.886002" />
    <radialGradient
       inkscape:collect="always"
       xlink:href="#linearGradient3238"
       id="radialGradient3998"
       gradientUnits="userSpaceOnUse"
       gradientTransform="matrix(3.6839986,0.02924771,-0.01355806,1.3340879,-527.55891,-46.239536)"
       cx="214.5"
       cy="261.42999"
       r="35.886002" />
    <radialGradient
       inkscape:collect="always"
       xlink:href="#linearGradient3238"
       id="radialGradient4000"
       gradientUnits="userSpaceOnUse"
       gradientTransform="matrix(2.9425641,-0.012113,0.00628071,2.0070271,-360.67263,-131.68132)"
       cx="205.49001"
       cy="161.99001"
       r="34.339001" />
  </defs>
  <sodipodi:namedview
     id="base"
     bordercolor="#666666"
     inkscape:pageshadow="2"
     inkscape:window-y="77"
     pagecolor="#ffffff"
     inkscape:window-height="872"
     inkscape:zoom="1.4"
     inkscape:window-x="0"
     showgrid="false"
     borderopacity="1.0"
     inkscape:current-layer="layer2"
     inkscape:cx="251.84775"
     inkscape:cy="199.77738"
     inkscape:window-width="1600"
     inkscape:pageopacity="0.0"
     inkscape:document-units="px"
     inkscape:window-maximized="1" />
  <g
     id="layer2"
     inkscape:label="dessin"
     inkscape:groupmode="layer"
     transform="translate(-32.219,-118.32)">
    <path
       id="path3182"
       style="fill:#105ea0;fill-rule:evenodd;stroke:#000000;stroke-width:4;stroke-miterlimit:4;stroke-opacity:1;stroke-dasharray:none"
       d="m 127.18056,342.51589 11.62445,10.91648 9.49046,0.19212 -0.77041,-9.94216 -20.3445,-1.16644 z"
       inkscape:connector-curvature="0" />
    <path
       id="path3184"
       style="fill:#105ea0;fill-rule:evenodd;stroke:#000000;stroke-width:4;stroke-miterlimit:4;stroke-opacity:1;stroke-dasharray:none"
       d="m 150.42947,347.58646 3.68165,5.84591 9.10185,0.39109 v -9.55105 l -12.7835,3.31405 z"
       inkscape:connector-curvature="0" />
    <path
       style="fill:#000080;fill-opacity:1;stroke:#000000;stroke-width:4;stroke-linecap:butt;stroke-linejoin:miter;stroke-miterlimit:4;stroke-opacity:1;stroke-dasharray:none"
       d="M 117.28082,291.80432 C 22.361935,255.50256 49.671249,249.13243 51.116639,248.79821 c 31.639951,-4.51595 51.444631,14.24461 66.164181,43.00611 z"
       id="path3877-4"
       inkscape:connector-curvature="0"
       sodipodi:nodetypes="ccc" />
    <g
       id="g2399"
       style="fill:url(#radialGradient3998);stroke:#000000;stroke-width:2.619591;stroke-miterlimit:4;stroke-opacity:1;stroke-dasharray:none"
       transform="matrix(1.4355694,0,0,1.6241602,-155.78124,-115.70847)">
      <path
         id="path2397"
         sodipodi:rx="35.535713"
         sodipodi:ry="32.5"
         style="fill:url(#radialGradient3996);stroke:#000000;stroke-width:2.619591;stroke-miterlimit:4;stroke-opacity:1;stroke-dasharray:none"
         sodipodi:type="arc"
         d="m 248.57143,254.64285 c 0,17.94926 -15.90988,32.5 -35.53571,32.5 -19.62583,0 -35.53571,-14.55074 -35.53571,-32.5 0,-17.94925 15.90988,-32.5 35.53571,-32.5 19.62583,0 35.53571,14.55075 35.53571,32.5 z"
         sodipodi:cy="254.64285"
         sodipodi:cx="213.03572" />
    </g>
    <path
       id="path3205"
       style="fill:#00459a;fill-rule:evenodd;stroke:#000000;stroke-width:4;stroke-miterlimit:4;stroke-opacity:1;stroke-dasharray:none"
       d="m 152.75437,233.54326 c 0,0 1.54765,10.53224 9.49046,15.20485 7.94281,4.67946 -27.70098,8.38461 -27.70098,8.38461 l -4.45206,-24.75589 22.66258,1.16643 z"
       inkscape:connector-curvature="0" />
    <path
       id="path3188"
       style="fill:#dbb81c;fill-rule:evenodd;stroke:#000000;stroke-width:4;stroke-miterlimit:4;stroke-opacity:1;stroke-dasharray:none"
       d="m 166.11738,353.82346 c 2.90441,0.19212 14.91748,7.79454 14.91748,7.79454 -5.42702,-3.70514 -16.85376,-3.31405 -16.85376,-3.31405 -1.16585,-0.19212 -3.68164,7.60242 -3.68164,7.60242 -0.57952,-1.75651 -4.26117,-8.57672 -4.26117,-8.57672 -3.10213,-1.55755 -16.85376,2.53184 -16.85376,2.53184 0,0 3.10214,-6.237 16.46514,-6.42912 l 10.26771,0.39109 z"
       inkscape:connector-curvature="0" />
    <path
       id="path3186"
       style="fill:#dbb81c;fill-rule:evenodd;stroke:#000000;stroke-width:4;stroke-miterlimit:4;stroke-opacity:1;stroke-dasharray:none"
       d="m 148.32957,353.82346 c 2.90441,0.19212 14.91749,7.79454 14.91749,7.79454 -5.42702,-3.70514 -16.85377,-3.31405 -16.85377,-3.31405 -1.15903,-0.19212 -3.68164,7.60242 -3.68164,7.60242 -0.57952,-1.75651 -4.26116,-8.57672 -4.26116,-8.57672 -3.09532,-1.55755 -16.85376,2.53184 -16.85376,2.53184 0,0 3.10212,-6.237 16.46513,-6.42912 l 10.26771,0.39109 z"
       inkscape:connector-curvature="0" />
    <path
       id="path2443"
       sodipodi:nodetypes="cccccccccccccccccccccccccc"
       style="fill:#0044aa;stroke-width:4;stroke-miterlimit:4;stroke-dasharray:none"
       d="m 153.15914,125.50517 c 1.78629,1.00519 -3.00667,1.91776 -3.47029,2.96412 -4.56115,4.00226 -7.50647,9.52499 -9.66772,15.12662 -0.0886,1.34964 -2.56352,1.83817 -3.71575,2.7425 -1.81354,1.10194 -3.75664,2.01999 -5.48838,3.24133 -1.10449,1.34963 -3.66118,0.58116 -5.31792,1.23231 -1.8681,0.66829 -0.40226,-1.74555 -0.17727,-2.5298 1.65674,-4.17104 3.50438,-8.28582 5.73382,-12.1776 0.68179,-0.73623 1.27494,-2.3665 0.93405,-0.43365 0.0886,3.28661 0.18409,6.60958 0.85905,9.84954 2.4067,-4.42698 4.47252,-9.10713 7.76555,-12.97284 2.95212,-3.51715 7.64283,-7.26759 12.54486,-7.04253 z m -20.47404,22.91499 c 8.54961,-4.89285 17.54918,-9.42412 27.31918,-11.1628 4.40435,-0.70672 10.16544,-0.53038 14.3857,1.17193 1.39084,1.49509 -3.33394,0.39796 -4.1589,0.60655 -7.17239,0.39178 -14.22889,2.57987 -20.3445,6.38589 -2.58397,1.49853 -4.88159,3.43825 -7.24058,5.24965 -3.743,-0.50705 -8.67232,-0.15644 -12.44941,0.006 -1.03633,-0.69438 2.13398,-1.891 2.48851,-2.2574 z m 26.01015,-2.21829 c -0.24544,1.15271 -3.69528,1.87522 -4.48616,2.84954 -1.56128,0.95579 -2.9044,2.24093 -4.44524,3.2077 -1.75901,-0.21614 -3.47711,-0.8268 -5.21566,-1.21241 -0.67497,-0.87552 1.54084,-1.33797 2.01127,-1.87521 3.32712,-1.78123 8.35188,-2.93325 12.13579,-2.96962 z"
       inkscape:connector-curvature="0" />
    <path
       id="path3198"
       sodipodi:nodetypes="ccccccccccc"
       style="fill:none;stroke:#000000;stroke-width:4;stroke-linecap:round;stroke-linejoin:round;stroke-miterlimit:4;stroke-dasharray:none"
       d="m 146.83217,155.11619 c 0,0 8.71323,-8.57742 13.56072,-8.77229 0,0 -10.84721,-1.94932 -20.14678,7.60243 m -0.96813,0.38972 c 0,0 13.363,-16.95931 36.22331,-15.20484 0,0 -11.04494,-10.13702 -44.93655,10.52674 m 9.22458,-5.37795 c 0,0 5.29748,-15.48067 14.40614,-18.40431 0,0 -10.07679,-5.06852 -21.31264,19.68807 0,0 -1.93627,-9.16201 0,-12.8658 0,0 -6.58605,10.91648 -9.10185,20.0785"
       inkscape:connector-curvature="0" />
    <path
       id="path3190"
       sodipodi:rx="33.839287"
       sodipodi:ry="36.160713"
       style="fill:url(#radialGradient4000);stroke:#000000;stroke-width:3.0010705;stroke-miterlimit:4;stroke-opacity:1;stroke-dasharray:none"
       sodipodi:type="arc"
       d="m 233.57143,147.05357 a 33.839287,36.160713 0 1 1 -67.67857,0 33.839287,36.160713 0 1 1 67.67857,0 z"
       transform="matrix(1.4273879,0,0,1.2445879,-146.48849,11.048893)"
       sodipodi:cy="147.05357"
       sodipodi:cx="199.73215" />
    <path
       id="path3196"
       style="fill:#dbb81c;fill-rule:evenodd;stroke:#000000;stroke-width:4;stroke-miterlimit:4;stroke-dasharray:none"
       d="m 114.01526,219.70383 c 0,0 14.33115,-11.10859 18.0128,-10.33326 3.68164,0.7822 16.46513,4.87845 17.43328,6.24387 0.96813,1.35856 -13.94935,39.37753 -15.69473,39.76177 -1.73855,0.39109 -20.33768,-30.01858 -19.75135,-35.67238 z"
       inkscape:connector-curvature="0" />
    <path
       style="fill:#000080;fill-opacity:1;stroke:#000000;stroke-width:4;stroke-linecap:butt;stroke-linejoin:miter;stroke-miterlimit:4;stroke-opacity:1;stroke-dasharray:none"
       d="m 180.41576,274.25071 c 88.6084,-49.6697 60.74254,-52.06147 59.2681,-52.18516 -31.90823,0.092 -58.06177,28.69182 -59.2681,52.18516 z"
       id="path3877"
       inkscape:connector-curvature="0"
       sodipodi:nodetypes="ccc"
       inkscape:transform-center-y="-25.967194"
       inkscape:transform-center-x="-28.970995" />
    <path
       sodipodi:type="arc"
       style="fill:#ffffff;fill-rule:evenodd;stroke:#000000;stroke-width:5.28168392;stroke-linecap:butt;stroke-linejoin:miter;stroke-miterlimit:4;stroke-opacity:1;stroke-dasharray:none"
       id="path3937"
       sodipodi:cx="399.64285"
       sodipodi:cy="190.81857"
       sodipodi:rx="13.928572"
       sodipodi:ry="13.928572"
       d="m 413.57142,190.81857 a 13.928572,13.928572 0 1 1 -27.85714,0 13.928572,13.928572 0 1 1 27.85714,0 z"
       transform="matrix(0.75537144,0,0,0.75930213,-187.14366,48.012317)" />
    <path
       sodipodi:type="arc"
       style="fill:#000000;fill-rule:evenodd;stroke:#000000;stroke-width:1.46207535px;stroke-linecap:butt;stroke-linejoin:miter;stroke-opacity:1"
       id="path3909"
       sodipodi:cx="364.28571"
       sodipodi:cy="151.89"
       sodipodi:rx="4.2857141"
       sodipodi:ry="4.2857141"
       d="m 368.57142,151.89 a 4.2857141,4.2857141 0 1 1 -8.57143,0 4.2857141,4.2857141 0 1 1 8.57143,0 z"
       transform="matrix(0.68178637,0,0,0.68613923,-139.62988,88.68358)" />
    <path
       style="fill:none;stroke:#000000;stroke-width:4;stroke-linecap:round;stroke-linejoin:miter;stroke-miterlimit:4;stroke-opacity:1;stroke-dasharray:none"
       d="m 130.90145,209.13351 c -5.44902,11.96347 -2.56511,24.94274 2.69775,42.64894"
       id="path3933"
       inkscape:connector-curvature="0"
       sodipodi:nodetypes="cc" />
    <path
       transform="matrix(0.75537144,0,0,0.75930213,-157.14653,47.469959)"
       sodipodi:type="arc"
       style="fill:#ffffff;fill-rule:evenodd;stroke:#000000;stroke-width:5.28168392;stroke-linecap:butt;stroke-linejoin:miter;stroke-miterlimit:4;stroke-opacity:1;stroke-dasharray:none"
       id="path3937-6"
       sodipodi:cx="399.64285"
       sodipodi:cy="190.81857"
       sodipodi:rx="13.928572"
       sodipodi:ry="13.928572"
       d="m 413.57142,190.81857 a 13.928572,13.928572 0 1 1 -27.85714,0 13.928572,13.928572 0 1 1 27.85714,0 z" />
    <path
       transform="matrix(0.68178637,0,0,0.68613923,-97.63277,88.141222)"
       sodipodi:type="arc"
       style="fill:#000000;fill-rule:evenodd;stroke:#000000;stroke-width:1.46207535px;stroke-linecap:butt;stroke-linejoin:miter;stroke-opacity:1"
       id="path3909-4"
       sodipodi:cx="364.28571"
       sodipodi:cy="151.89"
       sodipodi:rx="4.2857141"
       sodipodi:ry="4.2857141"
       d="m 368.57142,151.89 a 4.2857141,4.2857141 0 1 1 -8.57143,0 4.2857141,4.2857141 0 1 1 8.57143,0 z" />
    <path
       style="fill:#ffffff;fill-opacity:1;stroke:#000000;stroke-width:3;stroke-miterlimit:4;stroke-opacity:1;stroke-dasharray:none"
       d="m 135.58494,261.63682 c 2.92715,8.75531 0.63616,15.35584 -6.40333,19.99552 -8.62037,4.97415 -14.24805,11.60721 -15.13402,19.07068 l 0,0.0895 c -1.87635,16.65554 20.61056,31.03402 50.30219,32.14261 29.76271,1.11125 55.4758,-11.51136 57.45724,-28.20312 1.98143,-16.69177 -20.53947,-31.12089 -50.30219,-32.23214 -10.40633,-0.38854 -20.30221,0.8895 -28.88039,3.44705 -1.80626,-11.28539 -7.0395,-14.31013 -7.0395,-14.31013 z"
       id="path4443"
       inkscape:connector-curvature="0"
       sodipodi:nodetypes="ccccssscc" />
    <g
       style="font-size:25.23298836000000023px;font-style:normal;font-weight:normal;line-height:125%;letter-spacing:0px;word-spacing:0px;fill:#ffffff;fill-opacity:1;stroke:#000000;font-family:Sans"
       id="text4036">
      <path
         d="m 135.10452,294.1225 0,2.62433 c -0.83783,-0.7803 -1.73314,-1.36349 -2.68593,-1.74955 -0.94461,-0.38604 -1.95081,-0.57906 -3.0186,-0.57908 -2.10275,2e-5 -3.71267,0.6448 -4.82975,1.93436 -1.11709,1.28138 -1.67563,3.13771 -1.67563,5.569 0,2.4231 0.55854,4.27943 1.67563,5.569 1.11708,1.28137 2.727,1.92205 4.82975,1.92205 1.06779,0 2.07399,-0.19303 3.0186,-0.57908 0.95279,-0.38605 1.8481,-0.96923 2.68593,-1.74955 l 0,2.59968 c -0.87068,0.5914 -1.79474,1.03495 -2.77218,1.33065 -0.96925,0.2957 -1.99598,0.44355 -3.0802,0.44355 -2.7845,0 -4.9776,-0.85014 -6.5793,-2.55041 -1.60171,-1.70848 -2.40256,-4.0371 -2.40256,-6.98589 0,-2.95698 0.80085,-5.2856 2.40256,-6.98589 1.6017,-1.70846 3.7948,-2.5627 6.5793,-2.56272 1.10065,2e-5 2.1356,0.14786 3.10484,0.44355 0.97744,0.2875 1.89329,0.72283 2.74754,1.306"
         style="fill:#ffffff;stroke:#000000"
         id="path4041" />
      <path
         d="m 138.64059,305.65476 0,-8.3535 2.26703,0 0,8.26726 c -1e-5,1.30601 0.25462,2.28756 0.76389,2.94467 0.50925,0.6489 1.27314,0.97334 2.29166,0.97334 1.22386,0 2.18899,-0.39016 2.89539,-1.17047 0.7146,-0.78032 1.0719,-1.84401 1.07191,-3.19109 l 0,-7.82371 2.26703,0 0,13.7993 -2.26703,0 0,-2.11918 c -0.55034,0.83781 -1.19102,1.46207 -1.92204,1.87276 -0.72283,0.40248 -1.56475,0.60372 -2.52577,0.60372 -1.58528,0 -2.78861,-0.49283 -3.60999,-1.4785 -0.82139,-0.98566 -1.23208,-2.42719 -1.23208,-4.3246 m 5.70453,-8.68616 0,0"
         style="fill:#ffffff;stroke:#000000"
         id="path4043" />
      <path
         d="m 154.89172,297.30126 2.26703,0 0,13.7993 -2.26703,0 0,-13.7993 m 0,-5.37186 2.26703,0 0,2.87074 -2.26703,0 0,-2.87074"
         style="fill:#ffffff;stroke:#000000"
         id="path4045" />
      <path
         d="m 160.7441,303.17828 6.64091,0 0,2.02061 -6.64091,0 0,-2.02061"
         style="fill:#ffffff;stroke:#000000"
         id="path4047" />
      <path
         d="m 184.88053,294.1225 0,2.62433 c -0.83782,-0.7803 -1.73313,-1.36349 -2.68593,-1.74955 -0.94461,-0.38604 -1.9508,-0.57906 -3.01859,-0.57908 -2.10276,2e-5 -3.71268,0.6448 -4.82976,1.93436 -1.11709,1.28138 -1.67563,3.13771 -1.67562,5.569 -10e-6,2.4231 0.55853,4.27943 1.67562,5.569 1.11708,1.28137 2.727,1.92205 4.82976,1.92205 1.06779,0 2.07398,-0.19303 3.01859,-0.57908 0.9528,-0.38605 1.84811,-0.96923 2.68593,-1.74955 l 0,2.59968 c -0.87068,0.5914 -1.79474,1.03495 -2.77217,1.33065 -0.96925,0.2957 -1.99598,0.44355 -3.0802,0.44355 -2.78451,0 -4.97761,-0.85014 -6.57931,-2.55041 -1.6017,-1.70848 -2.40255,-4.0371 -2.40255,-6.98589 0,-2.95698 0.80085,-5.2856 2.40255,-6.98589 1.6017,-1.70846 3.7948,-2.5627 6.57931,-2.56272 1.10064,2e-5 2.13559,0.14786 3.10484,0.44355 0.97743,0.2875 1.89328,0.72283 2.74753,1.306"
         style="fill:#ffffff;stroke:#000000"
         id="path4049" />
      <path
         d="m 188.41661,305.65476 0,-8.3535 2.26702,0 0,8.26726 c 0,1.30601 0.25463,2.28756 0.76389,2.94467 0.50926,0.6489 1.27315,0.97334 2.29167,0.97334 1.22386,0 2.18899,-0.39016 2.89539,-1.17047 0.71459,-0.78032 1.0719,-1.84401 1.07191,-3.19109 l 0,-7.82371 2.26702,0 0,13.7993 -2.26702,0 0,-2.11918 c -0.55034,0.83781 -1.19102,1.46207 -1.92205,1.87276 -0.72283,0.40248 -1.56475,0.60372 -2.52576,0.60372 -1.58528,0 -2.78861,-0.49283 -3.60999,-1.4785 -0.82139,-0.98566 -1.23208,-2.42719 -1.23208,-4.3246 m 5.70453,-8.68616 0,0"
         style="fill:#ffffff;stroke:#000000"
         id="path4051" />
      <path
         d="m 204.66773,297.30126 2.26703,0 0,13.7993 -2.26703,0 0,-13.7993 m 0,-5.37186 2.26703,0 0,2.87074 -2.26703,0 0,-2.87074"
         style="fill:#ffffff;stroke:#000000"
         id="path4053" />
      <path
         d="m 213.09516,307.97107 2.50112,0 0,3.12949 -2.50112,0 0,-3.12949 m 0,-15.26546 2.50112,0 0,8.07012 -0.24642,4.39852 -1.99597,0 -0.25873,-4.39852 0,-8.07012"
         style="fill:#ffffff;stroke:#000000"
         id="path4055" />
    </g>
  </g>
  <metadata
     id="metadata45">
    <rdf:RDF>
      <cc:Work>
        <dc:format>image/svg+xml</dc:format>
        <dc:type
           rdf:resource="http://purl.org/dc/dcmitype/StillImage" />
        <cc:license
           rdf:resource="http://creativecommons.org/licenses/publicdomain/" />
        <dc:publisher>
          <cc:Agent
             rdf:about="http://openclipart.org/">
            <dc:title>Openclipart</dc:title>
          </cc:Agent>
        </dc:publisher>
        <dc:title></dc:title>
        <dc:date>2009-01-31T12:48:27</dc:date>
        <dc:description />
        <dc:source>https://openclipart.org/detail/21310/tweety-!-by-dodom01-21310</dc:source>
        <dc:creator>
          <cc:Agent>
            <dc:title>dodom01</dc:title>
          </cc:Agent>
        </dc:creator>
        <dc:subject>
          <rdf:Bag>
            <rdf:li>blue bird</rdf:li>
            <rdf:li>cartoon bird</rdf:li>
            <rdf:li>tweety</rdf:li>
          </rdf:Bag>
        </dc:subject>
      </cc:Work>
      <cc:License
         rdf:about="http://creativecommons.org/licenses/publicdomain/">
        <cc:permits
           rdf:resource="http://creativecommons.org/ns#Reproduction" />
        <cc:permits
           rdf:resource="http://creativecommons.org/ns#Distribution" />
        <cc:permits
           rdf:resource="http://creativecommons.org/ns#DerivativeWorks" />
      </cc:License>
    </rdf:RDF>
  </metadata>
</svg>
