<?xml version="1.0" encoding="UTF-8" standalone="no"?>
<!-- Created with Inkscape (http://www.inkscape.org/) -->

<svg
   xmlns:dc="http://purl.org/dc/elements/1.1/"
   xmlns:cc="http://creativecommons.org/ns#"
   xmlns:rdf="http://www.w3.org/1999/02/22-rdf-syntax-ns#"
   xmlns:svg="http://www.w3.org/2000/svg"
   xmlns="http://www.w3.org/2000/svg"
   xmlns:xlink="http://www.w3.org/1999/xlink"
   xmlns:sodipodi="http://sodipodi.sourceforge.net/DTD/sodipodi-0.dtd"
   xmlns:inkscape="http://www.inkscape.org/namespaces/inkscape"
   id="svg2"
   sodipodi:docname="dodom01_tweety_.svg"
   viewBox="0 0 225 254"
   sodipodi:version="0.32"
   version="1.0"
   inkscape:output_extension="org.inkscape.output.svg.inkscape"
   inkscape:version="0.48.4 r9939"
   width="100%"
   height="100%">
  <defs
     id="defs4">
    <linearGradient
       id="linearGradient3238"
       inkscape:collect="always">
      <stop
         id="stop3240"
         style="stop-color:rgb(0, 136, 170)"
         offset="0" />
      <stop
         id="stop3242"
         style="stop-color:rgb(0, 68, 170)"
         offset="1" />
    </linearGradient>
    <radialGradient
       id="radialGradient3244"
       xlink:href="#linearGradient3238"
       gradientUnits="userSpaceOnUse"
       cy="261.42999"
       cx="214.5"
       gradientTransform="matrix(3.9771082,0.03157474,-0.01463678,1.4402317,-607.19509,-64.307563)"
       r="35.886002"
       inkscape:collect="always" />
    <radialGradient
       id="radialGradient3246"
       xlink:href="#linearGradient3238"
       gradientUnits="userSpaceOnUse"
       cy="161.99001"
       cx="205.49001"
       gradientTransform="matrix(3.176683,-0.01307674,0.00678042,2.1667119,-426.72876,-152.83247)"
       r="34.339001"
       inkscape:collect="always" />
    <radialGradient
       inkscape:collect="always"
       xlink:href="#linearGradient3238"
       id="radialGradient3929"
       gradientUnits="userSpaceOnUse"
       gradientTransform="matrix(3.9771082,0.03157474,-0.01463678,1.4402317,-607.19509,-64.307563)"
       cx="214.5"
       cy="261.42999"
       r="35.886002" />
    <radialGradient
       inkscape:collect="always"
       xlink:href="#linearGradient3238"
       id="radialGradient3996"
       gradientUnits="userSpaceOnUse"
       gradientTransform="matrix(3.6839986,0.02924771,-0.01355806,1.3340879,-527.55891,-46.239536)"
       cx="214.5"
       cy="261.42999"
       r="35.886002" />
    <radialGradient
       inkscape:collect="always"
       xlink:href="#linearGradient3238"
       id="radialGradient3998"
       gradientUnits="userSpaceOnUse"
       gradientTransform="matrix(3.6839986,0.02924771,-0.01355806,1.3340879,-527.55891,-46.239536)"
       cx="214.5"
       cy="261.42999"
       r="35.886002" />
    <radialGradient
       inkscape:collect="always"
       xlink:href="#linearGradient3238"
       id="radialGradient4000"
       gradientUnits="userSpaceOnUse"
       gradientTransform="matrix(2.9425641,-0.012113,0.00628071,2.0070271,-360.67263,-131.68132)"
       cx="205.49001"
       cy="161.99001"
       r="34.339001" />
  </defs>
  <sodipodi:namedview
     id="base"
     bordercolor="#666666"
     inkscape:pageshadow="2"
     inkscape:window-y="77"
     pagecolor="#ffffff"
     inkscape:window-height="872"
     inkscape:zoom="1.4"
     inkscape:window-x="0"
     showgrid="false"
     borderopacity="1.0"
     inkscape:current-layer="layer2"
     inkscape:cx="251.84775"
     inkscape:cy="199.77738"
     inkscape:window-width="1600"
     inkscape:pageopacity="0.0"
     inkscape:document-units="px"
     inkscape:window-maximized="1" />
  <g
     id="layer2"
     inkscape:label="dessin"
     inkscape:groupmode="layer"
     transform="translate(-32.219,-118.32)">
    <g
       id="g3976"
       transform="matrix(1.0795629,0,0,1.0795629,-41.672123,-14.164066)">
      <path
         inkscape:connector-curvature="0"
         d="m 156.40838,330.39294 10.76774,10.11194 8.79102,0.17796 -0.71363,-9.20943 -18.84513,-1.08047 z"
         style="fill:#105ea0;fill-rule:evenodd;stroke:#000000;stroke-width:3.70520329;stroke-miterlimit:4;stroke-opacity:1;stroke-dasharray:none"
         id="path3182" />
      <path
         inkscape:connector-curvature="0"
         d="m 177.94386,335.08981 3.41032,5.41507 8.43105,0.36227 V 332.02 l -11.84137,3.06981 z"
         style="fill:#105ea0;fill-rule:evenodd;stroke:#000000;stroke-width:3.70520329;stroke-miterlimit:4;stroke-opacity:1;stroke-dasharray:none"
         id="path3184" />
      <path
         sodipodi:nodetypes="ccc"
         inkscape:connector-curvature="0"
         id="path3877-4"
         d="m 148.39837,258.86012 c -13.04321,93.22627 -24.46884,69.89833 -25.07092,68.66305 -10.65187,-27.62248 2.16727,-49.39871 25.07092,-68.66305 z"
         style="fill:#000080;fill-opacity:1;stroke:#000000;stroke-width:3.70520329;stroke-linecap:butt;stroke-linejoin:miter;stroke-miterlimit:4;stroke-opacity:1;stroke-dasharray:none" />
      <g
         transform="matrix(1.3297691,0,0,1.5044609,-105.69937,-94.060661)"
         style="fill:url(#radialGradient3998);stroke:#000000;stroke-width:2.619591;stroke-miterlimit:4;stroke-opacity:1;stroke-dasharray:none"
         id="g2399">
        <path
           sodipodi:cx="213.03572"
           sodipodi:cy="254.64285"
           d="m 248.57143,254.64285 c 0,17.94926 -15.90988,32.5 -35.53571,32.5 -19.62583,0 -35.53571,-14.55074 -35.53571,-32.5 0,-17.94925 15.90988,-32.5 35.53571,-32.5 19.62583,0 35.53571,14.55075 35.53571,32.5 z"
           sodipodi:type="arc"
           style="fill:url(#radialGradient3996);stroke:#000000;stroke-width:2.619591;stroke-miterlimit:4;stroke-opacity:1;stroke-dasharray:none"
           sodipodi:ry="32.5"
           sodipodi:rx="35.535713"
           id="path2397" />
      </g>
      <path
         inkscape:connector-curvature="0"
         d="m 180.09742,229.4515 c 0,0 1.43359,9.75602 8.79102,14.08426 7.35743,4.33459 -25.65944,7.76668 -25.65944,7.76668 l -4.12395,-22.93141 20.99237,1.08047 z"
         style="fill:#00459a;fill-rule:evenodd;stroke:#000000;stroke-width:3.70520329;stroke-miterlimit:4;stroke-opacity:1;stroke-dasharray:none"
         id="path3205" />
      <path
         inkscape:connector-curvature="0"
         d="m 192.47559,340.86715 c 2.69035,0.17796 13.81807,7.22009 13.81807,7.22009 -5.02705,-3.43208 -15.61165,-3.06981 -15.61165,-3.06981 -1.07993,-0.17796 -3.41031,7.04213 -3.41031,7.04213 -0.53681,-1.62706 -3.94712,-7.94463 -3.94712,-7.94463 -2.87351,-1.44276 -15.61165,2.34525 -15.61165,2.34525 0,0 2.87351,-5.77734 15.25167,-5.9553 l 9.51099,0.36227 z"
         style="fill:#dbb81c;fill-rule:evenodd;stroke:#000000;stroke-width:3.70520329;stroke-miterlimit:4;stroke-opacity:1;stroke-dasharray:none"
         id="path3188" />
      <path
         inkscape:connector-curvature="0"
         d="m 175.99872,340.86715 c 2.69036,0.17796 13.81809,7.22009 13.81809,7.22009 -5.02706,-3.43208 -15.61166,-3.06981 -15.61166,-3.06981 -1.07361,-0.17796 -3.41031,7.04213 -3.41031,7.04213 -0.53681,-1.62706 -3.94712,-7.94463 -3.94712,-7.94463 -2.86719,-1.44276 -15.61165,2.34525 -15.61165,2.34525 0,0 2.8735,-5.77734 15.25167,-5.9553 l 9.51098,0.36227 z"
         style="fill:#dbb81c;fill-rule:evenodd;stroke:#000000;stroke-width:3.70520329;stroke-miterlimit:4;stroke-opacity:1;stroke-dasharray:none"
         id="path3186" />
      <path
         inkscape:connector-curvature="0"
         d="m 149.47408,128.71408 c -1.65464,0.93111 2.78508,1.77642 3.21453,2.74567 4.225,3.70729 6.95325,8.823 8.95522,14.0118 0.0821,1.25017 2.37459,1.7027 3.4419,2.54038 1.67989,1.02073 3.47978,1.87112 5.08389,3.00244 1.02309,1.25017 3.39136,0.53833 4.926,1.14149 1.73042,0.61904 0.37261,-1.6169 0.1642,-2.34335 -1.53464,-3.86364 -3.24611,-7.67516 -5.31124,-11.28012 -0.63154,-0.68197 -1.18098,-2.19209 -0.86521,-0.40169 -0.0821,3.04439 -0.17052,6.12246 -0.79574,9.12363 -2.22933,-4.10071 -4.1429,-8.43594 -7.19323,-12.01675 -2.73456,-3.25794 -7.07956,-6.73197 -11.62032,-6.5235 z m 18.96512,21.22617 c -7.91951,-4.53225 -16.25582,-8.72957 -25.30578,-10.34011 -4.07975,-0.65463 -9.41625,-0.49129 -13.32548,1.08556 -1.28834,1.38491 3.08823,0.36863 3.85239,0.56185 6.64379,0.36291 13.18023,2.38974 18.84513,5.91526 2.39353,1.38809 4.52182,3.18485 6.70695,4.86275 3.46715,-0.46968 8.03318,-0.14491 11.5319,0.006 0.95995,-0.6432 -1.97671,-1.75163 -2.30511,-2.09103 z m -24.09322,-2.0548 c 0.22735,1.06776 3.42294,1.73702 4.15553,2.63953 1.44622,0.88535 2.69035,2.07578 4.11763,2.9713 1.62937,-0.20021 3.22085,-0.76587 4.83127,-1.12306 0.62523,-0.81099 -1.42728,-1.23936 -1.86304,-1.73701 -3.08191,-1.64995 -7.73635,-2.71707 -11.24139,-2.75076 z"
         style="fill:#0044aa;stroke-width:4;stroke-miterlimit:4;stroke-dasharray:none"
         sodipodi:nodetypes="cccccccccccccccccccccccccc"
         id="path2443" />
      <path
         inkscape:connector-curvature="0"
         d="m 155.33476,156.14279 c 0,0 -8.07107,-7.94527 -12.56131,-8.12578 0,0 10.04778,-1.80565 18.66198,7.04214 m 0.89678,0.361 c 0,0 -12.37816,-15.70942 -33.55368,-14.08426 0,0 10.23094,-9.38993 41.62476,9.75093 m -8.54473,-4.9816 c 0,0 -4.90706,-14.33976 -13.34442,-17.04793 0,0 9.33414,-4.69497 19.74191,18.23708 0,0 1.79357,-8.48678 0,-11.9176 0,0 6.10067,10.11194 8.43105,18.59873"
         style="fill:none;stroke:#000000;stroke-width:3.70520329;stroke-linecap:round;stroke-linejoin:round;stroke-miterlimit:4;stroke-dasharray:none"
         sodipodi:nodetypes="ccccccccccc"
         id="path3198" />
      <path
         sodipodi:cx="199.73215"
         sodipodi:cy="147.05357"
         transform="matrix(1.3221906,0,0,1.1528628,-97.091485,23.354785)"
         d="m 233.57143,147.05357 c 0,19.97101 -15.15036,36.16072 -33.83928,36.16072 -18.68892,0 -33.83929,-16.18971 -33.83929,-36.16072 0,-19.97101 15.15037,-36.16071 33.83929,-36.16071 18.68892,0 33.83928,16.1897 33.83928,36.16071 z"
         sodipodi:type="arc"
         style="fill:url(#radialGradient4000);stroke:#000000;stroke-width:3.0010705;stroke-miterlimit:4;stroke-opacity:1;stroke-dasharray:none"
         sodipodi:ry="36.160713"
         sodipodi:rx="33.839287"
         id="path3190" />
      <path
         inkscape:connector-curvature="0"
         d="m 144.21335,216.63202 c 0,0 13.27496,-10.28989 16.68527,-9.5717 3.41031,0.72455 15.25167,4.51891 16.14846,5.7837 0.89678,1.25843 -12.92129,36.47544 -14.53804,36.83136 -1.61042,0.36227 -18.83881,-27.80624 -18.29569,-33.04336 z"
         style="fill:#dbb81c;fill-rule:evenodd;stroke:#000000;stroke-width:3.70520329;stroke-miterlimit:4;stroke-dasharray:none"
         id="path3196" />
      <path
         sodipodi:nodetypes="ccc"
         inkscape:connector-curvature="0"
         id="path3877"
         d="m 215.55811,261.53418 c -27.65807,89.93704 -7.44709,73.72923 -6.37952,72.86971 21.33352,-20.45682 20.58726,-56.34793 6.37952,-72.86971 z"
         style="fill:#000080;fill-opacity:1;stroke:#000000;stroke-width:3.70520329;stroke-linecap:butt;stroke-linejoin:miter;stroke-miterlimit:4;stroke-opacity:1;stroke-dasharray:none" />
      <path
         transform="matrix(0.69970118,0,0,0.70334219,-134.7504,57.594035)"
         d="m 413.57142,190.81857 c 0,7.69254 -6.23603,13.92857 -13.92857,13.92857 -7.69253,0 -13.92857,-6.23603 -13.92857,-13.92857 0,-7.69253 6.23604,-13.92857 13.92857,-13.92857 7.69254,0 13.92857,6.23604 13.92857,13.92857 z"
         sodipodi:ry="13.928572"
         sodipodi:rx="13.928572"
         sodipodi:cy="190.81857"
         sodipodi:cx="399.64285"
         id="path3937"
         style="fill:#ffffff;fill-rule:evenodd;stroke:#000000;stroke-width:5.28168392;stroke-linecap:butt;stroke-linejoin:miter;stroke-miterlimit:4;stroke-opacity:1;stroke-dasharray:none"
         sodipodi:type="arc" />
      <path
         transform="matrix(0.63153927,0,0,0.63557133,-85.180549,95.267859)"
         d="m 368.57142,151.89 c 0,2.36693 -1.91878,4.28571 -4.28571,4.28571 -2.36694,0 -4.28572,-1.91878 -4.28572,-4.28571 0,-2.36694 1.91878,-4.28571 4.28572,-4.28571 2.36693,0 4.28571,1.91877 4.28571,4.28571 z"
         sodipodi:ry="4.2857141"
         sodipodi:rx="4.2857141"
         sodipodi:cy="151.89"
         sodipodi:cx="364.28571"
         id="path3909"
         style="fill:#000000;fill-rule:evenodd;stroke:#000000;stroke-width:1.46207535px;stroke-linecap:butt;stroke-linejoin:miter;stroke-opacity:1"
         sodipodi:type="arc" />
      <path
         sodipodi:nodetypes="cc"
         inkscape:connector-curvature="0"
         id="path3933"
         d="m 159.85504,206.84073 c -5.04743,11.08177 -2.37606,23.10448 2.49893,39.50575"
         style="fill:none;stroke:#000000;stroke-width:3.70520329;stroke-linecap:round;stroke-linejoin:miter;stroke-miterlimit:4;stroke-opacity:1;stroke-dasharray:none" />
      <path
         d="m 413.57142,190.81857 c 0,7.69254 -6.23603,13.92857 -13.92857,13.92857 -7.69253,0 -13.92857,-6.23603 -13.92857,-13.92857 0,-7.69253 6.23604,-13.92857 13.92857,-13.92857 7.69254,0 13.92857,6.23604 13.92857,13.92857 z"
         sodipodi:ry="13.928572"
         sodipodi:rx="13.928572"
         sodipodi:cy="190.81857"
         sodipodi:cx="399.64285"
         id="path3937-6"
         style="fill:#ffffff;fill-rule:evenodd;stroke:#000000;stroke-width:5.28168392;stroke-linecap:butt;stroke-linejoin:miter;stroke-miterlimit:4;stroke-opacity:1;stroke-dasharray:none"
         sodipodi:type="arc"
         transform="matrix(0.69970118,0,0,0.70334219,-106.96404,57.091648)" />
      <path
         d="m 368.57142,151.89 c 0,2.36693 -1.91878,4.28571 -4.28571,4.28571 -2.36694,0 -4.28572,-1.91878 -4.28572,-4.28571 0,-2.36694 1.91878,-4.28571 4.28572,-4.28571 2.36693,0 4.28571,1.91877 4.28571,4.28571 z"
         sodipodi:ry="4.2857141"
         sodipodi:rx="4.2857141"
         sodipodi:cy="151.89"
         sodipodi:cx="364.28571"
         id="path3909-4"
         style="fill:#000000;fill-rule:evenodd;stroke:#000000;stroke-width:1.46207535px;stroke-linecap:butt;stroke-linejoin:miter;stroke-opacity:1"
         sodipodi:type="arc"
         transform="matrix(0.63153927,0,0,0.63557133,-57.394198,94.765472)" />
    </g>
  </g>
  <metadata
     id="metadata45">
    <rdf:RDF>
      <cc:Work>
        <dc:format>image/svg+xml</dc:format>
        <dc:type
           rdf:resource="http://purl.org/dc/dcmitype/StillImage" />
        <cc:license
           rdf:resource="http://creativecommons.org/licenses/publicdomain/" />
        <dc:publisher>
          <cc:Agent
             rdf:about="http://openclipart.org/">
            <dc:title>Openclipart</dc:title>
          </cc:Agent>
        </dc:publisher>
        <dc:title>tweety !</dc:title>
        <dc:date>2009-01-31T12:48:27</dc:date>
        <dc:description />
        <dc:source>https://openclipart.org/detail/21310/tweety-!-by-dodom01-21310</dc:source>
        <dc:creator>
          <cc:Agent>
            <dc:title>dodom01</dc:title>
          </cc:Agent>
        </dc:creator>
        <dc:subject>
          <rdf:Bag>
            <rdf:li>blue bird</rdf:li>
            <rdf:li>cartoon bird</rdf:li>
            <rdf:li>tweety</rdf:li>
          </rdf:Bag>
        </dc:subject>
      </cc:Work>
      <cc:License
         rdf:about="http://creativecommons.org/licenses/publicdomain/">
        <cc:permits
           rdf:resource="http://creativecommons.org/ns#Reproduction" />
        <cc:permits
           rdf:resource="http://creativecommons.org/ns#Distribution" />
        <cc:permits
           rdf:resource="http://creativecommons.org/ns#DerivativeWorks" />
      </cc:License>
    </rdf:RDF>
  </metadata>
</svg>
