<?xml version="1.0" encoding="UTF-8" standalone="no"?>
<!-- Created with Inkscape (http://www.inkscape.org/) -->

<svg
   xmlns:dc="http://purl.org/dc/elements/1.1/"
   xmlns:cc="http://creativecommons.org/ns#"
   xmlns:rdf="http://www.w3.org/1999/02/22-rdf-syntax-ns#"
   xmlns:svg="http://www.w3.org/2000/svg"
   xmlns="http://www.w3.org/2000/svg"
   xmlns:sodipodi="http://sodipodi.sourceforge.net/DTD/sodipodi-0.dtd"
   xmlns:inkscape="http://www.inkscape.org/namespaces/inkscape"
   id="svg2"
   viewBox="0 0 250.77 393.49"
   version="1.0"
   inkscape:version="0.48.4 r9939"
   width="100%"
   height="100%"
   sodipodi:docname="cat-bubble.svg">
  <defs
     id="defs46" />
  <sodipodi:namedview
     pagecolor="#ffffff"
     bordercolor="#666666"
     borderopacity="1"
     objecttolerance="10"
     gridtolerance="10"
     guidetolerance="10"
     inkscape:pageopacity="0"
     inkscape:pageshadow="2"
     inkscape:window-width="1598"
     inkscape:window-height="871"
     id="namedview44"
     showgrid="false"
     inkscape:zoom="2.3990444"
     inkscape:cx="206.40109"
     inkscape:cy="63.26748"
     inkscape:window-x="0"
     inkscape:window-y="77"
     inkscape:window-maximized="0"
     inkscape:current-layer="svg2" />
  <path
     inkscape:connector-curvature="0"
     d="m 142.44587,146.28 c 9.45,-63.58 -54.4,-67.86 -47.21,-93.17 7.47,-26.32 36.51,-18.88 51.62,-22.66 15.11,-3.78 12.88,-17.74 3.78,-25.18 -6.93,-5.67 -63.55,-8.73 -76.81,32.73 -18.43,57.68 45.33,52.88 45.33,107.02 0,46.03 22.03,1.26 23.29,1.26 z"
     style="fill:#ff7f00;fill-opacity:1;fill-rule:evenodd;stroke:#000000;stroke-width:4"
     id="path3229" />
  <path
     inkscape:connector-curvature="0"
     d="m 248.7581,250.77819 a 123.38462,123.38462 0 1 1 -246.75836,0 123.38462,123.38462 0 1 1 246.75836,0 z"
     style="fill:#ff7f00;stroke:#000000;stroke-width:4.00000047999999975;stroke-linecap:round;stroke-linejoin:round;fill-opacity:1"
     id="path2383" />
  <path
     inkscape:connector-curvature="0"
     d="m 89.23587,15.53 c -3.32,4.19 -6.04,9.14 -7.9,14.97 -18.440003,57.68 45.31,52.89 45.31,107.03 0,18.7 3.66,22.4 8.06,20.22 -6.79,9.21 -15.56,16.33 -15.56,-12.72 0,-54.14 -63.750003,-49.35 -45.310003,-107.03 3.13,-9.79 8.660003,-17.09 15.400003,-22.47 z m 68.16,6.41 c -1.12,3.77 -4.39,6.96 -10.53,8.5 -10.77,2.69 -28.62,-0.3 -40.69,7.28 10.62,-16.85 34.84,-11.44 48.19,-14.78 1.11,-0.28 2.1,-0.62 3.03,-1 z"
     style="fill:#000000;fill-opacity:0.31373004;fill-rule:evenodd"
     id="path3334" />
  <path
     inkscape:connector-curvature="0"
     d="m 79.23,136.35 c -14.36,5.8 -27.38,14.22 -38.47,24.68 3.25,5.52 7.45,10.59 12.78,14.41 -12.29,16.1 -19.59,36.19 -19.59,58 0,52.82 42.87,95.69 95.69,95.69 52.82,0 95.69,-42.87 95.69,-95.69 0,-21.6 -7.2,-41.51 -19.29,-57.53 3.73,-2.55 6.89,-5.7 9.6,-9.19 -10.57,-11.34 -23.22,-20.71 -37.38,-27.44 -0.3,0.36 -0.59,0.73 -0.87,1.1 -2.16,2.77 -3.55,5.36 -4.35,7.78 -13.03,-6.66 -27.77,-10.41 -43.4,-10.41 -15.29,0 -29.74,3.59 -42.56,9.97 -0.82,-2.29 -2.17,-4.73 -4.19,-7.34 -1.09,-1.4 -2.32,-2.74 -3.66,-4.03 z"
     style="fill:#000000;fill-opacity:0.31373004"
     id="path3306" />
  <path
     inkscape:connector-curvature="0"
     d="m 33.64,104.21 c -2.57,0.05 -4.46,0.58 -5.41,1.65 -3.48,3.94 -0.59,39.94 21.07,55.44 -12.3,16.1 -19.6,36.19 -19.6,58 0,52.82 42.87,95.69 95.69,95.69 52.82,0 95.69,-42.87 95.69,-95.69 0,-21.6 -7.2,-41.51 -19.28,-57.53 22.26,-15.23 25.27,-51.93 21.74,-55.91 -5.04,-5.7 -37.51,3.77 -50.4,20.38 -2.16,2.78 -3.55,5.36 -4.34,7.78 -13.04,-6.66 -27.78,-10.41 -43.41,-10.41 -15.29,0 -29.74,3.59 -42.56,9.97 -0.82,-2.29 -2.17,-4.73 -4.19,-7.34 -10.48,-13.5 -33.89,-22.28 -45,-22.03 z"
     style="fill:#ff7f00;stroke:#000000;stroke-width:4;stroke-linecap:round;stroke-linejoin:round;fill-opacity:1"
     id="path2385" />
  <path
     inkscape:connector-curvature="0"
     d="m 213.58,182.22 c 1.2,6.05 1.84,12.29 1.84,18.69 0,52.82 -42.87,95.69 -95.69,95.68 -39.61,0 -73.62,-24.09 -88.15,-58.43 8.77,43.79 47.45,76.84 93.81,76.84 52.82,0 95.69,-42.87 95.69,-95.69 0,-13.15 -2.69,-25.69 -7.5,-37.09 z"
     style="fill:#000000;fill-opacity:0.31373004"
     id="path3293" />
  <path
     inkscape:connector-curvature="0"
     d="m 141.45,260.6 c 0,8.83 -9.67,15.99 -16.07,15.99 -6.89,0 -16.06,-7.16 -16.06,-15.99 0,-8.83 7.19,-11.08 16.06,-11.08 8.87,0 16.07,2.25 16.07,11.08 z"
     style="fill:#000000"
     id="path2397" />
  <g
     transform="translate(-202.6019,-242.5662)"
     id="g3178">
    <path
       inkscape:connector-curvature="0"
       transform="matrix(0.93748,0,0,0.93548,13.993,33.332)"
       d="m 392.75,487.02 a 39.03,39.03 0 0 1 -57.21,43.91"
       style="fill:none;stroke:#000000;stroke-width:4.27129984;stroke-linecap:round;stroke-linejoin:round"
       id="path2400" />
    <path
       inkscape:connector-curvature="0"
       transform="matrix(-0.93748,0,0,0.93548,641.98,33.332)"
       d="m 392.75,487.02 a 39.03,39.03 0 0 1 -57.21,43.91"
       style="fill:none;stroke:#000000;stroke-width:4.27129984;stroke-linecap:round;stroke-linejoin:round"
       id="path3176" />
  </g>
  <path
     inkscape:connector-curvature="0"
     d="m 233.95,192.16 c 3.2,10.97 4.91,22.59 4.91,34.59 0,68.11 -55.27,123.38 -123.38,123.38 -46.82,0 -87.6,-26.14 -108.5,-64.6 15.03,51.2 62.37,88.63 118.41,88.63 68.11,0 123.37,-55.27 123.37,-123.38 0,-21.21 -5.37,-41.18 -14.81,-58.62 z"
     style="fill:#000000;fill-opacity:0.31373004"
     id="path3339" />
  <g
     transform="translate(-200.08,-248.232)"
     id="g3188">
    <path
       inkscape:connector-curvature="0"
       d="m 365.35,505.67 c 44.67,-16.61 66.5,3.89 66.5,3.89"
       style="fill:none;stroke:#000000;stroke-width:4;stroke-linecap:round"
       id="path3182" />
    <path
       inkscape:connector-curvature="0"
       d="m 358.94,516.8 c 31.63,-8.96 52.35,13.89 52.35,13.89"
       style="fill:none;stroke:#000000;stroke-width:4;stroke-linecap:round"
       id="path3184" />
    <path
       inkscape:connector-curvature="0"
       d="m 356.31,528.71 c 24.34,-2.57 33.66,19.13 33.66,19.13"
       style="fill:none;stroke:#000000;stroke-width:4;stroke-linecap:round"
       id="path3186" />
  </g>
  <g
     transform="matrix(-1,0,0,1,451.47,-248.232)"
     id="g3193">
    <path
       inkscape:connector-curvature="0"
       d="m 365.35,505.67 c 44.67,-16.61 66.5,3.89 66.5,3.89"
       style="fill:none;stroke:#000000;stroke-width:4;stroke-linecap:round"
       id="path3195" />
    <path
       inkscape:connector-curvature="0"
       d="m 358.94,516.8 c 31.63,-8.96 52.35,13.89 52.35,13.89"
       style="fill:none;stroke:#000000;stroke-width:4;stroke-linecap:round"
       id="path3197" />
    <path
       inkscape:connector-curvature="0"
       d="m 356.31,528.71 c 24.34,-2.57 33.66,19.13 33.66,19.13"
       style="fill:none;stroke:#000000;stroke-width:4;stroke-linecap:round"
       id="path3199" />
  </g>
  <path
     inkscape:connector-curvature="0"
     d="m 181.41,142.5 c 2.52,-19.51 31.48,-32.73 35.25,-29.58 3.78,3.14 -4.67,33.4 -20.77,40.91 -9.44,4.41 -14.48,-6.29 -14.48,-11.33 z"
     style="fill:#784421;fill-rule:evenodd;stroke:#000000;stroke-width:4;stroke-linejoin:round"
     id="path3231" />
  <path
     inkscape:connector-curvature="0"
     d="M 69.62,142.5 C 67.1,122.99 38.14,109.77 34.37,112.92 c -3.78,3.14 4.66,33.4 20.77,40.91 9.44,4.41 14.48,-6.29 14.48,-11.33 z"
     style="fill:#784421;fill-rule:evenodd;stroke:#000000;stroke-width:4;stroke-linejoin:round"
     id="path3233" />
  <path
     inkscape:connector-curvature="0"
     d="m 209.42,370.71 c 0,21.54 -17.48,20.77 -39.03,20.77 -21.54,0 -39.03,0.77 -39.03,-20.77 0,-21.55 17.49,-39.03 39.03,-39.03 21.55,0 39.03,17.48 39.03,39.03 z"
     style="fill:#ff7f00;stroke:#000000;stroke-width:4;stroke-linecap:round;stroke-linejoin:round;fill-opacity:1"
     id="path3235" />
  <path
     inkscape:connector-curvature="0"
     d="m 119.4,370.71 c 0,21.54 -17.48,20.77 -39.03,20.77 -11.98,0 -22.7,0.24 -29.86,-3.25 -5.72,-2.79 -9.17,-7.96 -9.17,-17.52 0,-21.55 17.49,-39.03 39.03,-39.03 21.55,0 39.03,17.48 39.03,39.03 z"
     style="fill:#ff7f00;stroke:#000000;stroke-width:4;stroke-linecap:round;stroke-linejoin:round;fill-opacity:1"
     id="path3238" />
  <path
     inkscape:connector-curvature="0"
     d="m 190.89,337.5 c 4.72,6.48 7.53,14.47 7.53,23.09 0,12.47 -5.84,23.56 -14.91,30.76 15.09,-0.58 25.91,-3.7 25.91,-20.63 0,-14.03 -7.41,-26.34 -18.53,-33.22 z"
     style="fill:#000000;fill-opacity:0.31373004"
     id="path3327" />
  <path
     inkscape:connector-curvature="0"
     d="m 100.39,337.5 c 4.72,6.48 7.53,14.47 7.53,23.09 0,12.47 -5.84,23.56 -14.91,30.76 15.09,-0.58 25.91,-3.7 25.91,-20.63 0,-14.03 -7.41,-26.34 -18.53,-33.22 z"
     style="fill:#000000;fill-opacity:0.31373004"
     id="path3332" />
  <path
     inkscape:connector-curvature="0"
     d="m 136.58,351.22 c -3.32,5.73 -5.22,12.41 -5.22,19.5 0,17.51 11.55,20.26 27.44,20.69 -15.78,-6.58 -23.81,-22.21 -22.22,-40.19 z"
     style="fill:#000000;fill-opacity:0.31373004"
     id="path3349" />
  <g
     transform="matrix(-1,0,0,1,452.4,-239.3579)"
     id="g2469">
    <path
       inkscape:connector-curvature="0"
       d="m 357.34,628.69 c -3.5,-11.33 0.5,-24.55 0.5,-24.55"
       style="fill:none;stroke:#000000;stroke-width:4;stroke-linecap:round"
       id="path2471" />
    <path
       inkscape:connector-curvature="0"
       d="m 375.37,631.21 c 4.29,-18.25 -0.62,-32.73 -0.62,-32.73"
       style="fill:none;stroke:#000000;stroke-width:4;stroke-linecap:round"
       id="path2473" />
    <path
       inkscape:connector-curvature="0"
       d="m 393.62,629.32 c 8.81,-13.85 1.26,-25.18 1.26,-25.18"
       style="fill:none;stroke:#000000;stroke-width:4;stroke-linecap:round"
       id="path2475" />
  </g>
  <g
     transform="translate(-200.90294,-239.3579)"
     id="g2508">
    <path
       inkscape:connector-curvature="0"
       d="m 357.34,628.69 c -3.5,-11.33 0.5,-24.55 0.5,-24.55"
       style="fill:none;stroke:#000000;stroke-width:4;stroke-linecap:round"
       id="path2510" />
    <path
       inkscape:connector-curvature="0"
       d="m 375.37,631.21 c 4.29,-18.25 -0.62,-32.73 -0.62,-32.73"
       style="fill:none;stroke:#000000;stroke-width:4;stroke-linecap:round"
       id="path2512" />
    <path
       inkscape:connector-curvature="0"
       d="m 393.62,629.32 c 8.81,-13.85 1.26,-25.18 1.26,-25.18"
       style="fill:none;stroke:#000000;stroke-width:4;stroke-linecap:round"
       id="path2514" />
  </g>
  <metadata
     id="metadata42">
    <rdf:RDF>
      <cc:Work>
        <dc:format>image/svg+xml</dc:format>
        <dc:type
           rdf:resource="http://purl.org/dc/dcmitype/StillImage" />
        <cc:license
           rdf:resource="http://creativecommons.org/licenses/publicdomain/" />
        <dc:publisher>
          <cc:Agent
             rdf:about="http://openclipart.org/">
            <dc:title>Openclipart</dc:title>
          </cc:Agent>
        </dc:publisher>
        <dc:title>Cartoon cat</dc:title>
        <dc:date>2008-07-10T07:24:31</dc:date>
        <dc:description />
        <dc:source>https://openclipart.org/detail/17683/cartoon-cat-by-lemmling</dc:source>
        <dc:creator>
          <cc:Agent>
            <dc:title>lemmling</dc:title>
          </cc:Agent>
        </dc:creator>
        <dc:subject>
          <rdf:Bag>
            <rdf:li>animal</rdf:li>
            <rdf:li>brown</rdf:li>
            <rdf:li>cartoon</rdf:li>
            <rdf:li>cat</rdf:li>
            <rdf:li>colour</rdf:li>
            <rdf:li>funny</rdf:li>
            <rdf:li>how i did it</rdf:li>
            <rdf:li>mammal</rdf:li>
          </rdf:Bag>
        </dc:subject>
      </cc:Work>
      <cc:License
         rdf:about="http://creativecommons.org/licenses/publicdomain/">
        <cc:permits
           rdf:resource="http://creativecommons.org/ns#Reproduction" />
        <cc:permits
           rdf:resource="http://creativecommons.org/ns#Distribution" />
        <cc:permits
           rdf:resource="http://creativecommons.org/ns#DerivativeWorks" />
      </cc:License>
    </rdf:RDF>
  </metadata>
  <g
     id="g3032"
     transform="translate(154.22808,15.83964)">
    <path
       sodipodi:end="3.1415927"
       sodipodi:start="0"
       transform="matrix(0.67227266,0,0,1.0140014,15.692766,-23.614149)"
       d="m -54.292448,294.12753 c 0,6.87754 -5.575342,12.45288 -12.452875,12.45288 -6.877533,0 -12.452875,-5.57534 -12.452875,-12.45288 0,0 0,0 0,0 l 12.452875,0 z"
       sodipodi:ry="12.452875"
       sodipodi:rx="12.452875"
       sodipodi:cy="294.12753"
       sodipodi:cx="-66.745323"
       id="path3965"
       style="fill:#ff0000;stroke:#000000;stroke-width:3.63353419;stroke-miterlimit:4;stroke-opacity:1;stroke-dasharray:none"
       sodipodi:type="arc" />
    <path
       sodipodi:nodetypes="cc"
       inkscape:connector-curvature="0"
       id="path3991"
       d="m -29.89854,275.69339 c 3.12316,4.4852 2.03809,7.97364 1.31491,10.56566"
       style="fill:none;stroke:#000000;stroke-width:1.06356895px;stroke-linecap:round;stroke-linejoin:miter;stroke-opacity:1" />
  </g>
  <g
     id="g4019"
     transform="translate(3.2236149,-0.40366795)">
    <path
       inkscape:connector-curvature="0"
       id="path3999"
       d="m 66.905091,207.25913 45.698939,13.57374 -46.103354,10.75656"
       style="fill:none;stroke:#000000;stroke-width:4;stroke-linecap:round;stroke-linejoin:bevel;stroke-miterlimit:4;stroke-opacity:1;stroke-dasharray:none" />
    <path
       inkscape:connector-curvature="0"
       id="path3999-2"
       d="m 177.41767,207.25913 -45.69894,13.57374 46.10336,10.75656"
       style="fill:none;stroke:#000000;stroke-width:4;stroke-linecap:round;stroke-linejoin:bevel;stroke-miterlimit:4;stroke-opacity:1;stroke-dasharray:none" />
  </g>
  <g
     id="g4064"
     transform="translate(35.358324,2.9119548)">
    <path
       sodipodi:nodetypes="ccccssscc"
       inkscape:connector-curvature="0"
       id="path4443"
       d="m 93.949163,306.14812 c 2.84457,8.50834 0.61821,14.92267 -6.2227,19.43147 -8.37721,4.83384 -13.84614,11.27979 -14.70711,18.53272 l 0,0.087 c -1.82342,16.18571 20.02916,30.15859 48.883227,31.23591 28.92314,1.0799 53.91089,-11.18664 55.83644,-27.40755 1.92554,-16.22092 -19.96008,-30.24301 -48.88323,-31.32291 -10.11278,-0.37758 -19.72951,0.86441 -28.06571,3.34981 -1.755307,-10.96704 -6.840917,-13.90646 -6.840917,-13.90646 z"
       style="fill:#ffffff;fill-opacity:1;stroke:#000000;stroke-width:2.9153738;stroke-miterlimit:4;stroke-opacity:1;stroke-dasharray:none" />
    <g
       transform="matrix(0.89913206,0,0,0.89913206,-16.543389,48.986245)"
       id="text3030"
       style="font-size:30.48139381px;font-style:normal;font-weight:normal;line-height:125%;letter-spacing:0px;word-spacing:0px;fill:#ffffff;fill-opacity:1;stroke:#000000;stroke-width:1;font-family:Sans">
      <path
         inkscape:connector-curvature="0"
         id="path3035"
         d="m 111.21301,318.34962 4.47993,0 5.67061,15.12163 5.70038,-15.12163 4.47993,0 0,22.22106 -2.93205,0 0,-19.51226 -5.73014,15.2407 -3.02135,0 -5.73015,-15.2407 0,19.51226 -2.91716,0 0,-22.22106"
         style="stroke-width:1" />
      <path
         inkscape:connector-curvature="0"
         id="path3037"
         d="m 151.66634,331.55128 0,1.33952 -12.59143,0 c 0.11906,1.88524 0.68464,3.32398 1.69672,4.31621 1.02199,0.98231 2.44088,1.47347 4.25668,1.47347 1.05175,0 2.06879,-0.12899 3.05111,-0.38698 0.99222,-0.25797 1.97453,-0.64494 2.94693,-1.16091 l 0,2.58973 c -0.98232,0.41674 -1.98944,0.73425 -3.02134,0.95254 -1.03194,0.21829 -2.07874,0.32744 -3.14042,0.32744 -2.65919,0 -4.76769,-0.77394 -6.32549,-2.32182 -1.54788,-1.54788 -2.32182,-3.64149 -2.32182,-6.28084 0,-2.72863 0.73425,-4.89169 2.20276,-6.4892 1.47842,-1.6074 3.46784,-2.41111 5.96828,-2.41113 2.24243,2e-5 4.01356,0.72435 5.3134,2.17299 1.30973,1.43875 1.96461,3.39841 1.96462,5.87898 m -2.73856,-0.80371 c -0.0199,-1.49826 -0.44156,-2.6939 -1.26509,-3.58692 -0.81365,-0.89299 -1.89518,-1.3395 -3.24461,-1.33951 -1.52804,10e-6 -2.75345,0.43163 -3.67622,1.29486 -0.91286,0.86326 -1.43874,2.07874 -1.57765,3.64646 l 9.76357,-0.0149"
         style="stroke-width:1" />
      <path
         inkscape:connector-curvature="0"
         id="path3039"
         d="m 162.62059,325.82114 c -1.46851,10e-6 -2.62942,0.57551 -3.48273,1.72648 -0.85333,1.14108 -1.27999,2.70881 -1.27998,4.70319 -1e-5,1.99439 0.42169,3.56708 1.26509,4.71806 0.85332,1.14107 2.01919,1.71161 3.49762,1.71161 1.45857,0 2.61452,-0.5755 3.46786,-1.72649 0.8533,-1.15099 1.27996,-2.71871 1.27998,-4.70318 -2e-5,-1.97454 -0.42668,-3.5373 -1.27998,-4.6883 -0.85334,-1.1609 -2.00929,-1.74136 -3.46786,-1.74137 m 0,-2.32183 c 2.38135,2e-5 4.25171,0.77396 5.61108,2.32183 1.35934,1.54789 2.03902,3.69111 2.03904,6.42967 -2e-5,2.72864 -0.6797,4.87186 -2.03904,6.42967 -1.35937,1.54788 -3.22973,2.32182 -5.61108,2.32182 -2.39129,0 -4.2666,-0.77394 -5.62596,-2.32182 -1.34944,-1.55781 -2.02415,-3.70103 -2.02415,-6.42967 0,-2.73856 0.67471,-4.88178 2.02415,-6.42967 1.35936,-1.54787 3.23467,-2.32181 5.62596,-2.32183"
         style="stroke-width:1" />
      <path
         inkscape:connector-curvature="0"
         id="path3041"
         d="m 173.20276,323.90117 2.73856,0 3.4232,13.00817 3.40832,-13.00817 3.22972,0 3.4232,13.00817 3.40832,-13.00817 2.73857,0 -4.36087,16.66951 -3.22972,0 -3.58692,-13.66305 -3.6018,13.66305 -3.22972,0 -4.36086,-16.66951"
         style="stroke-width:1" />
      <path
         inkscape:connector-curvature="0"
         id="path3043"
         d="m 201.46651,336.79027 3.02135,0 0,3.78041 -3.02135,0 0,-3.78041 m 0,-18.44065 3.02135,0 0,9.74869 -0.29767,5.31341 -2.41112,0 -0.31256,-5.31341 0,-9.74869"
         style="stroke-width:1" />
    </g>
  </g>
</svg>
