<?xml version="1.0" encoding="UTF-8" standalone="no"?>
<!-- Created with Inkscape (http://www.inkscape.org/) -->

<svg
   xmlns:dc="http://purl.org/dc/elements/1.1/"
   xmlns:cc="http://creativecommons.org/ns#"
   xmlns:rdf="http://www.w3.org/1999/02/22-rdf-syntax-ns#"
   xmlns:svg="http://www.w3.org/2000/svg"
   xmlns="http://www.w3.org/2000/svg"
   xmlns:sodipodi="http://sodipodi.sourceforge.net/DTD/sodipodi-0.dtd"
   xmlns:inkscape="http://www.inkscape.org/namespaces/inkscape"
   id="svg2"
   viewBox="0 0 250.77 393.49"
   version="1.0"
   inkscape:version="0.48.4 r9939"
   width="100%"
   height="100%"
   sodipodi:docname="cat.svg">
  <defs
     id="defs46" />
  <sodipodi:namedview
     pagecolor="#ffffff"
     bordercolor="#666666"
     borderopacity="1"
     objecttolerance="10"
     gridtolerance="10"
     guidetolerance="10"
     inkscape:pageopacity="0"
     inkscape:pageshadow="2"
     inkscape:window-width="1600"
     inkscape:window-height="872"
     id="namedview44"
     showgrid="false"
     inkscape:zoom="1.1995222"
     inkscape:cx="180.04785"
     inkscape:cy="258.7952"
     inkscape:window-x="0"
     inkscape:window-y="77"
     inkscape:window-maximized="1"
     inkscape:current-layer="svg2" />
  <g
     id="g4389">
    <path
       id="path3229"
       style="fill:#ff7f00;fill-rule:evenodd;stroke:#000000;stroke-width:4;fill-opacity:1"
       d="M 105.87,146.28 C 96.42,82.7 160.27,78.42 153.08,53.11 145.61,26.79 116.57,34.23 101.46,30.45 86.35,26.67 88.58,12.71 97.68,5.27 c 6.93,-5.67 63.55,-8.73 76.81,32.73 18.43,57.68 -45.33,52.88 -45.33,107.02 0,46.03 -22.03,1.26 -23.29,1.26 z"
       inkscape:connector-curvature="0" />
    <path
       id="path2383"
       style="fill:#ff7f00;stroke:#000000;stroke-width:4.00000047999999975;stroke-linecap:round;stroke-linejoin:round;fill-opacity:1"
       d="m 248.7581,250.77819 a 123.38462,123.38462 0 1 1 -246.75836,0 123.38462,123.38462 0 1 1 246.75836,0 z"
       inkscape:connector-curvature="0" />
    <path
       id="path3334"
       style="fill:#000000;fill-opacity:0.31373004;fill-rule:evenodd"
       d="m 159.08,15.53 c 3.32,4.19 6.04,9.14 7.9,14.97 18.44,57.68 -45.31,52.89 -45.31,107.03 0,18.7 -3.66,22.4 -8.06,20.22 6.79,9.21 15.56,16.33 15.56,-12.72 0,-54.14 63.75,-49.35 45.31,-107.03 -3.13,-9.79 -8.66,-17.09 -15.4,-22.47 z m -68.16,6.41 c 1.12,3.77 4.39,6.96 10.53,8.5 10.77,2.69 28.62,-0.3 40.69,7.28 C 131.52,20.87 107.3,26.28 93.95,22.94 c -1.11,-0.28 -2.1,-0.62 -3.03,-1 z"
       inkscape:connector-curvature="0" />
    <path
       id="path3306"
       style="fill:#000000;fill-opacity:0.31373004"
       d="m 79.23,136.35 c -14.36,5.8 -27.38,14.22 -38.47,24.68 3.25,5.52 7.45,10.59 12.78,14.41 -12.29,16.1 -19.59,36.19 -19.59,58 0,52.82 42.87,95.69 95.69,95.69 52.82,0 95.69,-42.87 95.69,-95.69 0,-21.6 -7.2,-41.51 -19.29,-57.53 3.73,-2.55 6.89,-5.7 9.6,-9.19 -10.57,-11.34 -23.22,-20.71 -37.38,-27.44 -0.3,0.36 -0.59,0.73 -0.87,1.1 -2.16,2.77 -3.55,5.36 -4.35,7.78 -13.03,-6.66 -27.77,-10.41 -43.4,-10.41 -15.29,0 -29.74,3.59 -42.56,9.97 -0.82,-2.29 -2.17,-4.73 -4.19,-7.34 -1.09,-1.4 -2.32,-2.74 -3.66,-4.03 z"
       inkscape:connector-curvature="0" />
    <path
       id="path2385"
       style="fill:#ff7f00;stroke:#000000;stroke-width:4;stroke-linecap:round;stroke-linejoin:round;fill-opacity:1"
       d="m 33.64,104.21 c -2.57,0.05 -4.46,0.58 -5.41,1.65 -3.48,3.94 -0.59,39.94 21.07,55.44 -12.3,16.1 -19.6,36.19 -19.6,58 0,52.82 42.87,95.69 95.69,95.69 52.82,0 95.69,-42.87 95.69,-95.69 0,-21.6 -7.2,-41.51 -19.28,-57.53 22.26,-15.23 25.27,-51.93 21.74,-55.91 -5.04,-5.7 -37.51,3.77 -50.4,20.38 -2.16,2.78 -3.55,5.36 -4.34,7.78 -13.04,-6.66 -27.78,-10.41 -43.41,-10.41 -15.29,0 -29.74,3.59 -42.56,9.97 -0.82,-2.29 -2.17,-4.73 -4.19,-7.34 -10.48,-13.5 -33.89,-22.28 -45,-22.03 z"
       inkscape:connector-curvature="0" />
    <path
       id="path3293"
       style="fill:#000000;fill-opacity:0.31373004"
       d="m 213.58,182.22 c 1.2,6.05 1.84,12.29 1.84,18.69 0,52.82 -42.87,95.69 -95.69,95.68 -39.61,0 -73.62,-24.09 -88.15,-58.43 8.77,43.79 47.45,76.84 93.81,76.84 52.82,0 95.69,-42.87 95.69,-95.69 0,-13.15 -2.69,-25.69 -7.5,-37.09 z"
       inkscape:connector-curvature="0" />
    <path
       id="path2387"
       style="fill:#ffffff;stroke:#000000;stroke-width:4.00000811;stroke-linecap:round;stroke-linejoin:round"
       d="m 120.34979,205.77602 a 27.384207,27.384207 0 1 1 -54.766001,0 27.384207,27.384207 0 1 1 54.766001,0 z"
       inkscape:connector-curvature="0" />
    <path
       id="path2391"
       style="fill:#ffffff;stroke:#000000;stroke-width:4.00000811;stroke-linecap:round;stroke-linejoin:round"
       d="m 183.92979,205.77602 a 27.384207,27.384207 0 1 1 -54.766,0 27.384207,27.384207 0 1 1 54.766,0 z"
       inkscape:connector-curvature="0" />
    <path
       id="path2393"
       style="fill:#000000"
       d="m 109.64,208.91875 a 8.4985,8.4985 0 1 1 -16.99625,0 8.4985,8.4985 0 1 1 16.99625,0 z"
       inkscape:connector-curvature="0" />
    <path
       id="path2395"
       style="fill:#000000"
       d="m 156.23,208.91875 a 8.4985,8.4985 0 1 1 -16.99625,0 8.4985,8.4985 0 1 1 16.99625,0 z"
       inkscape:connector-curvature="0" />
    <path
       id="path2397"
       style="fill:#000000"
       d="m 141.45,260.6 c 0,8.83 -9.67,15.99 -16.07,15.99 -6.89,0 -16.06,-7.16 -16.06,-15.99 0,-8.83 7.19,-11.08 16.06,-11.08 8.87,0 16.07,2.25 16.07,11.08 z"
       inkscape:connector-curvature="0" />
    <g
       id="g3178"
       transform="translate(-202.6019,-242.5662)">
      <path
         id="path2400"
         style="fill:none;stroke:#000000;stroke-width:4.27129984;stroke-linecap:round;stroke-linejoin:round"
         d="m 392.75,487.02 a 39.03,39.03 0 0 1 -57.21,43.91"
         transform="matrix(0.93748,0,0,0.93548,13.993,33.332)"
         inkscape:connector-curvature="0" />
      <path
         id="path3176"
         style="fill:none;stroke:#000000;stroke-width:4.27129984;stroke-linecap:round;stroke-linejoin:round"
         d="m 392.75,487.02 a 39.03,39.03 0 0 1 -57.21,43.91"
         transform="matrix(-0.93748,0,0,0.93548,641.98,33.332)"
         inkscape:connector-curvature="0" />
    </g>
    <path
       id="path3339"
       style="fill:#000000;fill-opacity:0.31373004"
       d="m 233.95,192.16 c 3.2,10.97 4.91,22.59 4.91,34.59 0,68.11 -55.27,123.38 -123.38,123.38 -46.82,0 -87.6,-26.14 -108.5,-64.6 15.03,51.2 62.37,88.63 118.41,88.63 68.11,0 123.37,-55.27 123.37,-123.38 0,-21.21 -5.37,-41.18 -14.81,-58.62 z"
       inkscape:connector-curvature="0" />
    <g
       id="g3188"
       transform="translate(-200.08,-248.232)">
      <path
         id="path3182"
         style="fill:none;stroke:#000000;stroke-width:4;stroke-linecap:round"
         d="m 365.35,505.67 c 44.67,-16.61 66.5,3.89 66.5,3.89"
         inkscape:connector-curvature="0" />
      <path
         id="path3184"
         style="fill:none;stroke:#000000;stroke-width:4;stroke-linecap:round"
         d="m 358.94,516.8 c 31.63,-8.96 52.35,13.89 52.35,13.89"
         inkscape:connector-curvature="0" />
      <path
         id="path3186"
         style="fill:none;stroke:#000000;stroke-width:4;stroke-linecap:round"
         d="m 356.31,528.71 c 24.34,-2.57 33.66,19.13 33.66,19.13"
         inkscape:connector-curvature="0" />
    </g>
    <g
       id="g3193"
       transform="matrix(-1,0,0,1,451.47,-248.232)">
      <path
         id="path3195"
         style="fill:none;stroke:#000000;stroke-width:4;stroke-linecap:round"
         d="m 365.35,505.67 c 44.67,-16.61 66.5,3.89 66.5,3.89"
         inkscape:connector-curvature="0" />
      <path
         id="path3197"
         style="fill:none;stroke:#000000;stroke-width:4;stroke-linecap:round"
         d="m 358.94,516.8 c 31.63,-8.96 52.35,13.89 52.35,13.89"
         inkscape:connector-curvature="0" />
      <path
         id="path3199"
         style="fill:none;stroke:#000000;stroke-width:4;stroke-linecap:round"
         d="m 356.31,528.71 c 24.34,-2.57 33.66,19.13 33.66,19.13"
         inkscape:connector-curvature="0" />
    </g>
    <path
       id="path3231"
       style="fill:#784421;fill-rule:evenodd;stroke:#000000;stroke-width:4;stroke-linejoin:round"
       d="m 181.41,142.5 c 2.52,-19.51 31.48,-32.73 35.25,-29.58 3.78,3.14 -4.67,33.4 -20.77,40.91 -9.44,4.41 -14.48,-6.29 -14.48,-11.33 z"
       inkscape:connector-curvature="0" />
    <path
       id="path3233"
       style="fill:#784421;fill-rule:evenodd;stroke:#000000;stroke-width:4;stroke-linejoin:round"
       d="M 69.62,142.5 C 67.1,122.99 38.14,109.77 34.37,112.92 c -3.78,3.14 4.66,33.4 20.77,40.91 9.44,4.41 14.48,-6.29 14.48,-11.33 z"
       inkscape:connector-curvature="0" />
    <path
       id="path3235"
       style="fill:#ff7f00;stroke:#000000;stroke-width:4;stroke-linecap:round;stroke-linejoin:round;fill-opacity:1"
       d="m 209.42,370.71 c 0,21.54 -17.48,20.77 -39.03,20.77 -21.54,0 -39.03,0.77 -39.03,-20.77 0,-21.55 17.49,-39.03 39.03,-39.03 21.55,0 39.03,17.48 39.03,39.03 z"
       inkscape:connector-curvature="0" />
    <path
       id="path3238"
       style="fill:#ff7f00;stroke:#000000;stroke-width:4;stroke-linecap:round;stroke-linejoin:round;fill-opacity:1"
       d="m 119.4,370.71 c 0,21.54 -17.48,20.77 -39.03,20.77 -11.98,0 -22.7,0.24 -29.86,-3.25 -5.72,-2.79 -9.17,-7.96 -9.17,-17.52 0,-21.55 17.49,-39.03 39.03,-39.03 21.55,0 39.03,17.48 39.03,39.03 z"
       inkscape:connector-curvature="0" />
    <path
       id="path3327"
       style="fill:#000000;fill-opacity:0.31373004"
       d="m 190.89,337.5 c 4.72,6.48 7.53,14.47 7.53,23.09 0,12.47 -5.84,23.56 -14.91,30.76 15.09,-0.58 25.91,-3.7 25.91,-20.63 0,-14.03 -7.41,-26.34 -18.53,-33.22 z"
       inkscape:connector-curvature="0" />
    <path
       id="path3332"
       style="fill:#000000;fill-opacity:0.31373004"
       d="m 100.39,337.5 c 4.72,6.48 7.53,14.47 7.53,23.09 0,12.47 -5.84,23.56 -14.91,30.76 15.09,-0.58 25.91,-3.7 25.91,-20.63 0,-14.03 -7.41,-26.34 -18.53,-33.22 z"
       inkscape:connector-curvature="0" />
    <path
       id="path3349"
       style="fill:#000000;fill-opacity:0.31373004"
       d="m 136.58,351.22 c -3.32,5.73 -5.22,12.41 -5.22,19.5 0,17.51 11.55,20.26 27.44,20.69 -15.78,-6.58 -23.81,-22.21 -22.22,-40.19 z"
       inkscape:connector-curvature="0" />
    <g
       id="g2469"
       transform="matrix(-1,0,0,1,452.4,-239.3579)">
      <path
         id="path2471"
         style="fill:none;stroke:#000000;stroke-width:4;stroke-linecap:round"
         d="m 357.34,628.69 c -3.5,-11.33 0.5,-24.55 0.5,-24.55"
         inkscape:connector-curvature="0" />
      <path
         id="path2473"
         style="fill:none;stroke:#000000;stroke-width:4;stroke-linecap:round"
         d="m 375.37,631.21 c 4.29,-18.25 -0.62,-32.73 -0.62,-32.73"
         inkscape:connector-curvature="0" />
      <path
         id="path2475"
         style="fill:none;stroke:#000000;stroke-width:4;stroke-linecap:round"
         d="m 393.62,629.32 c 8.81,-13.85 1.26,-25.18 1.26,-25.18"
         inkscape:connector-curvature="0" />
    </g>
    <g
       id="g2508"
       transform="translate(-200.90294,-239.3579)">
      <path
         id="path2510"
         style="fill:none;stroke:#000000;stroke-width:4;stroke-linecap:round"
         d="m 357.34,628.69 c -3.5,-11.33 0.5,-24.55 0.5,-24.55"
         inkscape:connector-curvature="0" />
      <path
         id="path2512"
         style="fill:none;stroke:#000000;stroke-width:4;stroke-linecap:round"
         d="m 375.37,631.21 c 4.29,-18.25 -0.62,-32.73 -0.62,-32.73"
         inkscape:connector-curvature="0" />
      <path
         id="path2514"
         style="fill:none;stroke:#000000;stroke-width:4;stroke-linecap:round"
         d="m 393.62,629.32 c 8.81,-13.85 1.26,-25.18 1.26,-25.18"
         inkscape:connector-curvature="0" />
    </g>
  </g>
  <metadata
     id="metadata42">
    <rdf:RDF>
      <cc:Work>
        <dc:format>image/svg+xml</dc:format>
        <dc:type
           rdf:resource="http://purl.org/dc/dcmitype/StillImage" />
        <cc:license
           rdf:resource="http://creativecommons.org/licenses/publicdomain/" />
        <dc:publisher>
          <cc:Agent
             rdf:about="http://openclipart.org/">
            <dc:title>Openclipart</dc:title>
          </cc:Agent>
        </dc:publisher>
        <dc:title>Cartoon cat</dc:title>
        <dc:date>2008-07-10T07:24:31</dc:date>
        <dc:description />
        <dc:source>https://openclipart.org/detail/17683/cartoon-cat-by-lemmling</dc:source>
        <dc:creator>
          <cc:Agent>
            <dc:title>lemmling</dc:title>
          </cc:Agent>
        </dc:creator>
        <dc:subject>
          <rdf:Bag>
            <rdf:li>animal</rdf:li>
            <rdf:li>brown</rdf:li>
            <rdf:li>cartoon</rdf:li>
            <rdf:li>cat</rdf:li>
            <rdf:li>colour</rdf:li>
            <rdf:li>funny</rdf:li>
            <rdf:li>how i did it</rdf:li>
            <rdf:li>mammal</rdf:li>
          </rdf:Bag>
        </dc:subject>
      </cc:Work>
      <cc:License
         rdf:about="http://creativecommons.org/licenses/publicdomain/">
        <cc:permits
           rdf:resource="http://creativecommons.org/ns#Reproduction" />
        <cc:permits
           rdf:resource="http://creativecommons.org/ns#Distribution" />
        <cc:permits
           rdf:resource="http://creativecommons.org/ns#DerivativeWorks" />
      </cc:License>
    </rdf:RDF>
  </metadata>
</svg>
