<?xml version="1.0" encoding="UTF-8" standalone="no"?>
<!-- Created with Inkscape (http://www.inkscape.org/) -->

<svg
   xmlns:dc="http://purl.org/dc/elements/1.1/"
   xmlns:cc="http://creativecommons.org/ns#"
   xmlns:rdf="http://www.w3.org/1999/02/22-rdf-syntax-ns#"
   xmlns:svg="http://www.w3.org/2000/svg"
   xmlns="http://www.w3.org/2000/svg"
   xmlns:sodipodi="http://sodipodi.sourceforge.net/DTD/sodipodi-0.dtd"
   xmlns:inkscape="http://www.inkscape.org/namespaces/inkscape"
   id="svg2"
   sodipodi:docname="chicken-bubble.svg"
   viewBox="0 0 250 300"
   sodipodi:version="0.32"
   version="1.0"
   inkscape:output_extension="org.inkscape.output.svg.inkscape"
   inkscape:version="0.48.4 r9939"
   width="100%"
   height="100%">
  <defs
     id="defs28" />
  <sodipodi:namedview
     id="base"
     bordercolor="#666666"
     inkscape:pageshadow="2"
     guidetolerance="10.0"
     pagecolor="#ffffff"
     gridtolerance="10.0"
     inkscape:zoom="3.067281"
     objecttolerance="10.0"
     borderopacity="1.0"
     inkscape:current-layer="svg2"
     inkscape:cx="213.5941"
     inkscape:cy="172.50342"
     inkscape:window-y="24"
     inkscape:window-x="1600"
     inkscape:window-height="1028"
     showgrid="false"
     inkscape:pageopacity="0.0"
     inkscape:window-width="1920"
     inkscape:window-maximized="1" />
  <g
     id="g3122">
    <path
       id="path3943"
       style="fill:#ff7400;fill-rule:evenodd;stroke:#000000;stroke-width:2.37058949;stroke-linecap:round"
       d="m 72.317012,218.58195 c -4.926576,0.49559 -4.216512,6.59693 -3.995531,10.20412 -0.06337,9.5623 0.02193,19.13273 0.136488,28.69503 -7.779017,-1.02366 -15.548285,-3.13598 -23.306179,-3.78592 -4.350563,0.52808 -5.239361,7.4906 -0.533767,8.25429 3.017365,1.06428 13.717068,1.24301 11.616124,2.80288 -6.655426,3.03036 -14.036353,4.9152 -20.400117,8.33553 -3.419518,3.35534 1.327511,9.35107 5.455467,6.7188 8.151923,-3.10348 16.22504,-6.40195 24.350965,-9.58668 -0.770184,4.42775 -4.679597,8.56302 -3.859043,13.1045 1.767848,4.59023 9.425813,3.60719 9.571238,-1.7061 2.043262,-5.29705 3.895602,-10.67533 5.890118,-15.98863 7.291559,-3.24159 15.194066,-5.4839 22.265456,-8.98547 3.538129,-2.73789 0.597139,-8.85549 -3.807859,-7.36874 -6.027418,2.16106 -11.963032,4.68772 -17.899458,7.01127 -0.165736,-11.18716 -0.161673,-22.40682 -0.126739,-33.53711 -0.34772,-2.5754 -2.806133,-4.38712 -5.357163,-4.16777 z"
       inkscape:connector-curvature="0" />
    <path
       inkscape:connector-curvature="0"
       d="m 198.58074,98.727959 c 2.7847,-8.39041 1.42916,-13.349485 -0.37872,-14.536011 -4.0336,-3.313944 -9.11753,-3.153992 -13.85948,-4.075873 -2.84966,0.109654 -6.12117,-0.636611 -10.1917,7.320524 -3.35727,7.6892 -5.60808,17.252301 -7.48533,25.712801 -3.69825,17.25147 -3.63182,32.8987 1.20083,35.01923 6.0432,3.14842 16.75541,-12.80773 24.78705,-32.82161 2.13563,-5.26521 4.13856,-10.87584 5.92735,-16.619061 z"
       style="fill:#d24e11;stroke:#000000;stroke-width:3.36093712;stroke-linecap:round;stroke-linejoin:round"
       id="path3977" />
    <path
       inkscape:connector-curvature="0"
       d="m 225.46181,117.23846 c 5.47264,-6.94226 5.88421,-12.06506 4.58145,-13.79783 -2.66842,-4.486364 -7.50449,-6.06472 -11.65015,-8.540386 -2.72208,-0.86805 -5.53736,-2.673553 -12.07332,3.423862 -5.76949,6.092014 -11.13294,14.323454 -15.76669,21.644924 -9.3392,14.97723 -14.59058,29.71332 -10.7641,33.34931 4.61605,5.01087 20.10857,-6.35679 34.45733,-22.45939 3.79647,-4.2279 7.58792,-8.82267 11.21548,-13.62049 z"
       style="fill:#d24e11;stroke:#000000;stroke-width:3.36093712;stroke-linecap:round;stroke-linejoin:round"
       id="path3971" />
    <path
       inkscape:connector-curvature="0"
       d="m 235.10493,149.15307 c 8.11605,-3.50322 10.91826,-7.81079 10.59781,-9.95463 -0.21041,-5.21518 -3.71124,-8.90685 -6.17809,-13.05786 -1.97805,-2.055 -3.59807,-4.9918 -12.24813,-2.73897 -7.97234,2.61235 -16.60771,7.29632 -24.17232,11.52335 -15.3351,8.72584 -26.97535,19.18739 -25.3396,24.20561 1.669,6.60378 20.7104,3.97666 40.99225,-3.34338 5.34981,-1.91219 10.86965,-4.15059 16.34808,-6.63412 z"
       style="fill:#d24e11;stroke:#000000;stroke-width:3.36093712;stroke-linecap:round;stroke-linejoin:round"
       id="path3975" />
    <path
       id="path3492"
       style="fill:#ff7400;fill-rule:evenodd;stroke:#000000;stroke-width:2.37058949;stroke-linecap:round"
       d="m 145.08149,218.02138 c -5.56514,0.73931 -4.63897,7.44998 -4.21651,11.47963 -0.36559,8.70113 -0.0406,17.49162 -0.27623,26.22524 -6.6213,-2.10419 -12.95825,-6.24758 -19.88016,-7.08439 -5.2483,0.6337 -3.81029,8.693 0.99117,8.70925 6.41007,2.98162 14.10378,4.72022 19.7258,8.48177 2.77851,6.19884 3.91591,13.42135 7.69371,19.03524 3.46095,2.9085 9.83853,-1.44613 7.13313,-5.60577 -0.97491,-3.94841 -6.5888,-12.64954 0.98304,-7.8237 7.49061,2.6079 14.67249,6.50756 22.34995,8.3599 5.0127,0.0488 5.53265,-8.14055 0.45496,-8.50614 -6.46694,-2.56728 -12.93388,-5.13456 -19.40082,-7.69371 4.96394,-1.55987 11.19528,-0.39809 15.46866,-3.58282 2.9735,-3.34721 -1.77922,-8.53051 -5.56514,-6.59693 -6.87316,1.16178 -13.73819,2.33168 -20.61135,3.50157 -0.065,-12.1052 0.64994,-24.38102 -0.22748,-36.38061 -0.80431,-1.69798 -2.77039,-2.70539 -4.62273,-2.51853 z"
       inkscape:connector-curvature="0" />
    <path
       id="path3885"
       style="fill:#e45513;stroke:#000000;stroke-width:3.2497201;stroke-linecap:round;stroke-linejoin:round"
       d="m 197.86507,163.97853 c 0.0162,49.15202 -39.83344,89.01796 -88.99358,89.01796 -49.156893,0 -89.00171,-39.86594 -88.985461,-89.01796 -0.01828,-49.16257 39.828568,-89.017953 88.985461,-89.017953 49.16014,-0.0032 89.00983,39.855383 88.99358,89.017953 z"
       inkscape:connector-curvature="0" />
    <path
       id="path3887"
       style="fill:#000000;fill-opacity:0.31373004"
       d="m 192.48678,133.43929 c 0.0569,1.37301 0.0975,2.76226 0.0975,4.14339 0,49.11952 -39.86594,88.98546 -88.98545,88.98546 -38.39707,0 -71.16156,-24.3729 -83.631548,-58.47059 2.15822,47.21031 41.171515,84.87456 88.912338,84.87456 49.11952,0 88.98546,-39.86594 88.98546,-88.98545 0,-10.72408 -1.90109,-21.01757 -5.37829,-30.54737 z"
       inkscape:connector-curvature="0" />
    <path
       id="path4090"
       sodipodi:nodetypes="ccss"
       style="fill:#ff0000;fill-rule:evenodd;stroke:#000000;stroke-width:2.19356108;stroke-linecap:round;stroke-linejoin:round"
       d="m 112.88489,39.554066 -4.00528,38.111091 c 8.59551,-8.493143 17.71098,-16.372902 29.75119,-19.718489 33.58585,-9.328321 -9.48918,-39.951245 -25.74591,-18.392602 z"
       inkscape:connector-curvature="0" />
    <path
       id="path4092"
       sodipodi:nodetypes="ccss"
       style="fill:#ff0000;fill-rule:evenodd;stroke:#000000;stroke-width:2.38854432;stroke-linecap:round;stroke-linejoin:round"
       d="m 100.23536,31.953783 7.23062,45.410775 C 113.1205,64.705274 119.43308,52.588693 129.82406,44.750368 158.78719,22.894376 109.3427,1.6566435 100.23536,31.953783 z"
       inkscape:connector-curvature="0" />
    <path
       id="path3984"
       style="fill:#e45513;stroke:#000000;stroke-width:2.20631599;stroke-linecap:round;stroke-linejoin:round"
       d="m 167.66705,108.68536 c 0.008,33.37381 -27.0458,60.43585 -60.42042,60.43585 -33.373003,0 -60.426922,-27.06204 -60.41636,-60.43585 -0.01056,-33.375438 27.043357,-60.436668 60.41636,-60.436668 33.37462,8.1e-5 60.42854,27.06123 60.42042,60.436668 z"
       inkscape:connector-curvature="0" />
    <path
       id="path4022"
       sodipodi:nodetypes="ccsscssc"
       style="fill:#000000;fill-opacity:0.31373004"
       d="m 166.34279,88.200749 -1.41363,2.157814 c 0.18686,2.498223 0.25997,5.039504 0.25997,7.616532 0,36.699085 -36.59997,67.157085 -61.89904,63.168055 -21.058995,-3.32284 -46.201266,-15.97237 -57.518416,-42.6542 5.759316,32.69381 43.235899,56.9286 61.158106,56.74174 39.74407,-0.41434 61.89904,-28.54879 61.89904,-65.24707 0,-7.62953 -0.82055,-14.956834 -2.48603,-21.782871 z"
       inkscape:connector-curvature="0" />
    <path
       inkscape:connector-curvature="0"
       d="m 148.75557,98.452502 c 0,9.555608 -7.74139,17.303758 -17.297,17.303758 -9.5556,0 -17.30826,-7.74815 -17.297,-17.303758 -0.0113,-9.556734 7.7414,-17.304888 17.297,-17.304888 9.55561,0 17.297,7.748154 17.297,17.304888 z"
       style="fill:#ffffff;stroke:#000000;stroke-width:3.05328679;stroke-linecap:round;stroke-linejoin:round"
       id="path4014" />
    <path
       inkscape:connector-curvature="0"
       d="m 145.59275,92.450813 c 0,6.344267 -5.13915,11.487897 -11.4677,11.487897 -6.351,0 -11.49014,-5.14363 -11.49014,-11.487897 0,-6.342018 5.13914,-11.485653 11.49014,-11.485653 6.32855,0 11.4677,5.143635 11.4677,11.485653 z"
       style="fill:#000000"
       id="path4016" />
    <path
       inkscape:connector-curvature="0"
       d="m 101.48219,98.452502 c 0,9.555608 -7.741392,17.303758 -17.300379,17.303758 -9.556733,0 -17.301507,-7.74815 -17.299254,-17.303758 -0.0023,-9.556734 7.742521,-17.304888 17.299254,-17.304888 9.558987,0 17.300379,7.748154 17.300379,17.304888 z"
       style="fill:#ffffff;stroke:#000000;stroke-width:3.05328679;stroke-linecap:round;stroke-linejoin:round"
       id="path4012" />
    <path
       inkscape:connector-curvature="0"
       d="m 93.00883,104.45081 c 0,6.34428 -5.136899,11.48791 -11.478921,11.48791 -6.344267,0 -11.485659,-5.14363 -11.485659,-11.48791 0,-6.342017 5.141392,-11.485652 11.485659,-11.485652 6.342022,0 11.478921,5.143635 11.478921,11.485652 z"
       style="fill:#000000"
       id="path4018" />
    <path
       id="path3454"
       sodipodi:nodetypes="cccc"
       style="fill:#ff0000;fill-rule:evenodd;stroke:#000000;stroke-width:2.19356108;stroke-linecap:round;stroke-linejoin:round"
       d="m 90.216469,138.15951 14.974711,35.27571 16.45983,-31.66852 c -5.69513,-14.3922 -22.981207,-16.21204 -31.434541,-3.60719 z"
       inkscape:connector-curvature="0" />
    <path
       id="path4088"
       sodipodi:nodetypes="cccc"
       style="fill:#ffce00;fill-rule:evenodd;stroke:#000000;stroke-width:2.51772046;stroke-linecap:round;stroke-linejoin:round"
       d="M 86.414297,127.82621 96.741095,168.79624 123.219,139.26441 c -3.72905,-16.62069 -23.993494,-22.73666 -36.804703,-11.4382 z"
       inkscape:connector-curvature="0" />
    <path
       id="path4094"
       sodipodi:nodetypes="ccss"
       style="fill:#ff0000;fill-rule:evenodd;stroke:#000000;stroke-width:2.48741698;stroke-linecap:round;stroke-linejoin:round"
       d="m 84.356412,27.818514 22.191528,50.144805 c 1.03178,-14.682235 2.876,-28.817705 10.00101,-38.540055 C 136.41286,12.314913 82.663308,-6.914493 84.356412,27.818514 z"
       inkscape:connector-curvature="0" />
  </g>
  <metadata
     id="metadata26">
    <rdf:RDF>
      <cc:Work>
        <dc:format>image/svg+xml</dc:format>
        <dc:type
           rdf:resource="http://purl.org/dc/dcmitype/StillImage" />
        <cc:license
           rdf:resource="http://creativecommons.org/licenses/publicdomain/" />
        <dc:publisher>
          <cc:Agent
             rdf:about="http://openclipart.org/">
            <dc:title>Openclipart</dc:title>
          </cc:Agent>
        </dc:publisher>
        <dc:title />
        <dc:date>2009-05-14T16:33:16</dc:date>
        <dc:description>lemmling's cow base; pitr's chicken beak and feet</dc:description>
        <dc:source>https://openclipart.org/detail/26012/chicken-roundcartoon-by-bloodsong</dc:source>
        <dc:creator>
          <cc:Agent>
            <dc:title>bloodsong</dc:title>
          </cc:Agent>
        </dc:creator>
        <dc:subject>
          <rdf:Bag>
            <rdf:li>animal</rdf:li>
            <rdf:li>bird</rdf:li>
            <rdf:li>cartoon</rdf:li>
            <rdf:li>chicken</rdf:li>
            <rdf:li>colour</rdf:li>
            <rdf:li>hen</rdf:li>
            <rdf:li>outline</rdf:li>
            <rdf:li>remix</rdf:li>
          </rdf:Bag>
        </dc:subject>
      </cc:Work>
      <cc:License
         rdf:about="http://creativecommons.org/licenses/publicdomain/">
        <cc:permits
           rdf:resource="http://creativecommons.org/ns#Reproduction" />
        <cc:permits
           rdf:resource="http://creativecommons.org/ns#Distribution" />
        <cc:permits
           rdf:resource="http://creativecommons.org/ns#DerivativeWorks" />
      </cc:License>
    </rdf:RDF>
  </metadata>
  <g
     id="g3074"
     transform="translate(-223.65085,30.972056)">
    <path
       sodipodi:nodetypes="ccccssscc"
       inkscape:connector-curvature="0"
       id="path4443"
       d="m 332.2364,148.25312 c 4.57084,10.19519 0.99338,17.88123 -9.99901,23.28394 -13.461,5.79219 -22.2488,13.51611 -23.63227,22.20701 l 0,0.10422 c -2.92998,19.39467 32.18406,36.13781 78.54852,37.42872 46.47545,1.294 86.62729,-13.4045 89.72137,-32.84135 3.09407,-19.43687 -32.07306,-36.23897 -78.54852,-37.53298 -16.24983,-0.45244 -31.70257,1.03579 -45.09768,4.01395 -2.82054,-13.14136 -10.99241,-16.66355 -10.99241,-16.66355 z"
       style="fill:#ffffff;fill-opacity:1;stroke:#000000;stroke-width:3;stroke-miterlimit:4;stroke-opacity:1;stroke-dasharray:none" />
    <text
       transform="scale(1.0003354,0.99966472)"
       sodipodi:linespacing="125%"
       id="text3012"
       y="206.0152"
       x="304.48383"
       style="font-size:26.03092003px;font-style:normal;font-weight:normal;line-height:125%;letter-spacing:0px;word-spacing:0px;fill:#ffffff;fill-opacity:1;stroke:#000000;stroke-width:0.96731329;font-family:Sans"
       xml:space="preserve"><tspan
         style="stroke-width:0.96731329"
         y="206.0152"
         x="304.48383"
         id="tspan3014"
         sodipodi:role="line">Cluck-cluck!</tspan></text>
  </g>
</svg>
