<?xml version="1.0" encoding="UTF-8" standalone="no"?>
<svg
   xmlns:dc="http://purl.org/dc/elements/1.1/"
   xmlns:cc="http://creativecommons.org/ns#"
   xmlns:rdf="http://www.w3.org/1999/02/22-rdf-syntax-ns#"
   xmlns:svg="http://www.w3.org/2000/svg"
   xmlns="http://www.w3.org/2000/svg"
   xmlns:xlink="http://www.w3.org/1999/xlink"
   xmlns:sodipodi="http://sodipodi.sourceforge.net/DTD/sodipodi-0.dtd"
   xmlns:inkscape="http://www.inkscape.org/namespaces/inkscape"
   id="Layer_1"
   xml:space="preserve"
   viewBox="0 0 238 283.167"
   version="1.0"
   inkscape:version="0.48.4 r9939"
   width="100%"
   height="100%"
   sodipodi:docname="donkey-bubble.svg"><defs
     id="defs3053"><linearGradient
       inkscape:collect="always"
       id="linearGradient4024"><stop
         style="stop-color:#ff0000;stop-opacity:1;"
         offset="0"
         id="stop4026" /><stop
         style="stop-color:#ff0000;stop-opacity:0;"
         offset="1"
         id="stop4028" /></linearGradient><radialGradient
       inkscape:collect="always"
       xlink:href="#linearGradient4024"
       id="radialGradient4030"
       cx="-61.492832"
       cy="154.48199"
       fx="-61.492832"
       fy="154.48199"
       r="11.698637"
       gradientUnits="userSpaceOnUse"
       spreadMethod="pad" /><radialGradient
       inkscape:collect="always"
       xlink:href="#linearGradient4024"
       id="radialGradient4032"
       cx="-61.492832"
       cy="154.48199"
       fx="-61.492832"
       fy="154.48199"
       r="11.698637"
       gradientUnits="userSpaceOnUse"
       spreadMethod="pad" /><filter
       inkscape:collect="always"
       id="filter4162"
       x="-0.63794775"
       width="2.2758955"
       y="-0.63794775"
       height="2.2758955"><feGaussianBlur
         inkscape:collect="always"
         stdDeviation="6.2192659"
         id="feGaussianBlur4164" /></filter><filter
       inkscape:collect="always"
       id="filter4166"
       x="-0.63794775"
       width="2.2758955"
       y="-0.63794775"
       height="2.2758955"><feGaussianBlur
         inkscape:collect="always"
         stdDeviation="6.2192659"
         id="feGaussianBlur4168" /></filter></defs><sodipodi:namedview
     pagecolor="#ffffff"
     bordercolor="#666666"
     borderopacity="1"
     objecttolerance="10"
     gridtolerance="10"
     guidetolerance="10"
     inkscape:pageopacity="0"
     inkscape:pageshadow="2"
     inkscape:window-width="1280"
     inkscape:window-height="775"
     id="namedview3051"
     showgrid="false"
     inkscape:zoom="1.6668609"
     inkscape:cx="146.99025"
     inkscape:cy="141.41174"
     inkscape:window-x="0"
     inkscape:window-y="0"
     inkscape:window-maximized="1"
     inkscape:current-layer="Layer_1" /><metadata
     id="metadata35"><rdf:RDF><cc:Work><dc:format>image/svg+xml</dc:format><dc:type
           rdf:resource="http://purl.org/dc/dcmitype/StillImage" /><cc:license
           rdf:resource="http://creativecommons.org/licenses/publicdomain/" /><dc:publisher><cc:Agent
             rdf:about="http://openclipart.org/"><dc:title>Openclipart</dc:title></cc:Agent></dc:publisher><dc:title /><dc:date>2014-02-09T12:31:25</dc:date><dc:description>Remixed cartoon horse. Changed to grey to match the song, 'The Old Grey Mare.'</dc:description><dc:source>https://openclipart.org/detail/190760/cartoon-horse-grey-by-schplook-190760</dc:source><dc:creator><cc:Agent><dc:title>Schplook</dc:title></cc:Agent></dc:creator><dc:subject><rdf:Bag><rdf:li>animal</rdf:li><rdf:li>cartoon</rdf:li><rdf:li>farm</rdf:li><rdf:li>gray</rdf:li><rdf:li>grey</rdf:li><rdf:li>horse</rdf:li><rdf:li>mare</rdf:li></rdf:Bag></dc:subject></cc:Work><cc:License
         rdf:about="http://creativecommons.org/licenses/publicdomain/"><cc:permits
           rdf:resource="http://creativecommons.org/ns#Reproduction" /><cc:permits
           rdf:resource="http://creativecommons.org/ns#Distribution" /><cc:permits
           rdf:resource="http://creativecommons.org/ns#DerivativeWorks" /></cc:License></rdf:RDF></metadata><g
     id="g286" /><g
     id="g4190"><path
       id="path2383_2_"
       d="m 222.93499,161.2 c 0.0169,60.508 -45.93822,109.57 -102.6346,109.57 -56.693578,0 -102.65334,-49.062 -102.6346,-109.57 -0.01687,-60.508 45.938211,-109.57 102.6346,-109.57 56.69357,0 102.65334,49.062 102.6346,109.57 z"
       style="fill:#9f9f9f;fill-opacity:1;stroke:#010101;stroke-width:3.18209457;stroke-linecap:round;stroke-linejoin:round"
       inkscape:connector-curvature="0" /><path
       id="path3221"
       d="m 219.15908,138.74328 c 0,60.464 -48.39539,100.32743 -105.04587,100.32743 -44.282604,0 -81.115718,-32.86345 -95.49618,-74.83245 2.485755,59.27759 46.525028,104.96388 101.58642,104.96388 56.65141,0 103.42109,-49.44195 101.08791,-109.90495 -0.1797,-10.15369 -0.22053,-9.67479 -2.13228,-20.55391 z"
       style="fill:#5d5d5d;fill-opacity:1"
       inkscape:connector-curvature="0"
       sodipodi:nodetypes="cscscc" /><g
       id="g250"
       style="stroke:#010101;stroke-width:4;stroke-linejoin:round"><g
         id="g252"><path
           d="m 112.81,271.78 c 0,9.09 -14.667,9.38 -32.736,9.38 -18.07,0 -32.736,0.69 -32.736,-9.38 0,-17.72 14.666,-32.1 32.736,-32.1 18.069,0 32.736,14.38 32.736,32.1 z"
           id="path3329"
           inkscape:connector-curvature="0"
           style="fill:#343434;stroke-linecap:round" /><path
           d="m 67.483,280.56 c 0,-16.37 9.442,-26.44 9.442,-26.44 0,0 -3.777,13.85 -3.147,26.44 h -6.295 z"
           id="path3331"
           inkscape:connector-curvature="0"
           style="fill:#010101;fill-opacity:0.3137" /></g><g
         id="g256"><path
           d="m 127.81,271.78 c 0,9.09 14.66,9.38 32.73,9.38 18.07,0 32.74,0.69 32.74,-9.38 0,-17.72 -14.67,-32.1 -32.74,-32.1 -18.07,0 -32.73,14.38 -32.73,32.1 z"
           id="path3172"
           inkscape:connector-curvature="0"
           style="fill:#343434;stroke-linecap:round" /><path
           d="m 173.13,280.56 c 0,-16.37 -9.44,-26.44 -9.44,-26.44 0,0 3.78,13.85 3.15,26.44 h 6.29 z"
           id="path3174"
           inkscape:connector-curvature="0"
           style="fill:#010101;fill-opacity:0.3137" /></g></g><path
       id="path262"
       d="m 112.94692,49.097 c 0.729,0.092 1.46,0.22 2.203,0.33 19.911,2.985 34.102,11.633 43.385,23.958 l 12.053,-16.931 c -0.082,-0.002 -0.163,-0.014 -0.247,-0.015 -8.23,-19.026 -24.54,-32.751 -50.74,-36.681 -0.74,-0.112 -1.47,-0.239 -2.2,-0.331 -10.56,-1.321 -20.018,-0.606 -28.411,1.799 l -4.448,29.667 c 8.391,-2.404 17.849,-3.119 28.407,-1.796 z"
       inkscape:connector-curvature="0"
       style="fill:#424242;fill-opacity:1;stroke:#010101;stroke-width:4;stroke-linecap:round;stroke-linejoin:round" /><g
       id="g280"><path
         style="fill:#5a5a5a;fill-opacity:1"
         d="m 204.72,125.92 c 0,45.175 -55.121,81.838 -81.838,81.838 -25.719,0 -81.838,-36.663 -81.838,-81.838 0,-45.174 24.625,-81.838 81.838,-81.838 57.223,0 81.838,36.665 81.838,81.838 z"
         id="path3236"
         inkscape:connector-curvature="0" /><path
         d="m 198.64,85.911 -1.875,2.656 c 0.248,3.076 0.344,6.203 0.344,9.375 0,45.175 -55.127,81.844 -81.844,81.844 -20.707,0 -61.098,-23.756 -76.063,-56.594 7.615,40.246 57.172,71.375 80.875,71.375 26.717,0 81.844,-36.669 81.844,-81.844 0,-9.391 -1.076,-18.41 -3.281,-26.812 z"
         id="path3231"
         inkscape:connector-curvature="0"
         style="fill:#010101;fill-opacity:0.3137" /><path
         style="fill:#9b9b9b;fill-opacity:1;stroke:#010101;stroke-width:4;stroke-linecap:round;stroke-linejoin:round"
         d="m 235.03,4.202 c -5.021,-6.518 -64.881,6.3595 -73.391,39.345 -0.078,0.154 -0.215,0.618 -0.369,1.315 -0.047,0.214 -0.096,0.447 -0.146,0.705 -1.925,-1.174 -3.908,-2.261 -5.935,-3.272 -9.979,-3.714 -21.665,-5.762 -35.173,-5.762 -0.895,0 -1.779,-0.018 -2.656,0 -12.873,0.261 -24.037,2.432 -33.6,6.159 -2.307,1.185 -4.552,2.471 -6.723,3.866 C 76.992,46.276 76.946,46.015 76.901,45.764 76.685,44.581 76.468,43.757 76.364,43.548 69.718,17.776 31.736,2.028 13.036,2.023 7.799,2.022 4.074,2.776 2.976,4.202 c -4.002,5.193 4.251,46.94 26.575,61.389 4.198,2.717 8.894,4.473 14.101,4.833 2.119,0.146 4.11,0.156 5.98,0.119 -5.838,11.05 -9.148,23.634 -9.148,36.993 0,13.517 -2.5848,20.609 9.349,40.84 11.9338,20.231 51.79,45.975 70.186,45.975 18.565,0 56.478,-23.745 68.815,-43.672 12.337,-19.927 10.433,-28.833 10.433,-43.143 0,-13.346 -3.322,-25.91 -9.148,-36.953 1.345,-0.012 2.771,-0.057 4.237,-0.158 5.595,-0.388 10.6,-2.384 15.031,-5.457 21.621,-14.989 29.589,-55.646 25.644,-60.766 z"
         id="path284"
         inkscape:connector-curvature="0" /></g><path
       id="path3210"
       d="m 121.0023,136.363 c -24.824,0 -44.953,16.517 -44.953,36.868 0,3.7743 0.70362,7.4274 1.9921,10.858 15.886,9.677 31.738,15.271 42.961,15.271 11.495,0 27.19,-5.4128 42.845,-14.841 1.391,-3.5531 2.1484,-7.3574 2.1484,-11.287 0,-20.354 -20.17,-36.87 -44.993,-36.87 z"
       style="fill:#3d3d3d;fill-opacity:1;stroke:#010101;stroke-width:4.99910021;stroke-linecap:round;stroke-linejoin:round"
       inkscape:connector-curvature="0" /><g
       transform="matrix(1.4041977,0,0,1.4041977,-46.379315,-76.758084)"
       id="g3823"><path
         d="m 102.85,169.37 c 2.293,3.974 6.5,5.839 9.396,4.167 2.897,-1.673 3.385,-6.249 1.091,-10.222 -2.292,-3.973 -6.5,-5.838 -9.396,-4.166 -2.896,1.672 -3.385,6.249 -1.091,10.221 z"
         id="path2412"
         inkscape:connector-curvature="0"
         style="fill:#010101" /><path
         d="m 135.58,169.37 c -2.292,3.974 -6.5,5.839 -9.396,4.167 -2.896,-1.673 -3.385,-6.249 -1.091,-10.222 2.293,-3.973 6.5,-5.838 9.396,-4.166 2.898,1.672 3.385,6.249 1.091,10.221 z"
         id="path2398"
         inkscape:connector-curvature="0"
         style="fill:#010101" /></g><g
       id="g311"
       style="fill:#010101;stroke:#010101;stroke-width:4;stroke-linejoin:round"><path
         d="M 62.431,54.958 C 59.919,18.724 22.123,19.474 20.329,23.779 c -1.794,4.305 7.3035,43.735 42.102,31.179 z"
         id="path3216_1_"
         inkscape:connector-curvature="0" /><path
         d="m 177.39,55.079 c 2.511,-36.234 37.268,-36.092 39.061,-31.787 1.794,4.305 -4.2617,44.343 -39.061,31.787 z"
         id="path3218_1_"
         inkscape:connector-curvature="0" /></g><path
       inkscape:connector-curvature="0"
       id="path3214"
       d="m 183.5786,87.589793 -56.39343,23.397277 56.99336,11.9986"
       style="fill:none;stroke:#000000;stroke-width:4.00000011;stroke-linecap:butt;stroke-linejoin:miter;stroke-opacity:1;stroke-miterlimit:4;stroke-dasharray:none" /><path
       inkscape:connector-curvature="0"
       id="path3214-6"
       d="m 59.693042,87.589791 56.393428,23.397279 -56.993358,11.9986"
       style="fill:none;stroke:#000000;stroke-width:4.00000011;stroke-linecap:butt;stroke-linejoin:miter;stroke-opacity:1;stroke-miterlimit:4;stroke-dasharray:none" /><path
       sodipodi:open="true"
       sodipodi:end="6.2814339"
       sodipodi:start="0"
       transform="translate(127.78511,-12.298561)"
       d="m -49.794195,154.48199 a 11.698637,11.698637 0 1 1 -1.8e-5,-0.0205"
       sodipodi:ry="11.698637"
       sodipodi:rx="11.698637"
       sodipodi:cy="154.48199"
       sodipodi:cx="-61.492832"
       id="path4004"
       style="fill:url(#radialGradient4030);stroke:none;fill-opacity:1;filter:url(#filter4162);opacity:0.58"
       sodipodi:type="arc" /><path
       sodipodi:open="true"
       sodipodi:end="6.2814339"
       sodipodi:start="0"
       transform="translate(236.47221,-12.298561)"
       d="m -49.794195,154.48199 a 11.698637,11.698637 0 1 1 -1.8e-5,-0.0205"
       sodipodi:ry="11.698637"
       sodipodi:rx="11.698637"
       sodipodi:cy="154.48199"
       sodipodi:cx="-61.492832"
       id="path4004-8"
       style="fill:url(#radialGradient4032);stroke:none;fill-opacity:1;filter:url(#filter4166);opacity:0.58"
       sodipodi:type="arc" /></g><g
     id="g4179"
     transform="translate(-0.59993438,-0.5999292)"><path
       style="fill:#ffffff;fill-opacity:1;stroke:#000000;stroke-width:2.95149088;stroke-miterlimit:4;stroke-opacity:1;stroke-dasharray:none"
       d="m 123.67917,207.59538 c 3.79161,7.47794 0.82403,13.11547 -8.29437,17.07824 -11.16616,4.24843 -18.455812,9.91376 -19.603428,16.28833 l 0,0.0765 c -2.430475,14.22556 26.697298,26.50626 65.157528,27.45312 38.55231,0.94912 71.85905,-9.8319 74.42565,-24.08838 2.56659,-14.25651 -26.60523,-26.58047 -65.15755,-27.52959 -13.47956,-0.33185 -26.2979,0.75972 -37.40941,2.94414 -2.33969,-9.63889 -9.11842,-12.22233 -9.11842,-12.22233 z"
       id="path4443"
       inkscape:connector-curvature="0"
       sodipodi:nodetypes="ccccssscc" /><g
       transform="matrix(0.88435721,0,0,0.88435721,21.972636,20.117623)"
       id="text3052"
       style="font-size:33.91557693px;font-style:normal;font-weight:normal;line-height:125%;letter-spacing:0px;word-spacing:0px;fill:#ffffff;fill-opacity:1;stroke:#000000;font-family:Sans"><path
         inkscape:connector-curvature="0"
         id="path3057"
         d="m 102.31432,238.17626 3.34518,0 0,10.13493 12.15529,0 0,-10.13493 3.34519,0 0,24.72459 -3.34519,0 0,-11.7744 -12.15529,0 0,11.7744 -3.34518,0 0,-24.72459" /><path
         inkscape:connector-curvature="0"
         id="path3059"
         d="m 127.68476,244.35327 3.0471,0 0,18.54758 -3.0471,0 0,-18.54758 m 0,-7.22031 3.0471,0 0,3.85856 -3.0471,0 0,-3.85856" /><path
         inkscape:connector-curvature="0"
         id="path3061"
         d="m 135.55092,252.25255 8.92602,0 0,2.7159 -8.92602,0 0,-2.7159" /><path
         inkscape:connector-curvature="0"
         id="path3063"
         d="m 149.47816,238.17626 3.34519,0 0,10.13493 12.15529,0 0,-10.13493 3.34519,0 0,24.72459 -3.34519,0 0,-11.7744 -12.15529,0 0,11.7744 -3.34519,0 0,-24.72459" /><path
         inkscape:connector-curvature="0"
         id="path3065"
         d="m 183.27782,253.57738 c -2.46198,1e-5 -4.1677,0.28153 -5.11715,0.84457 -0.94946,0.56306 -1.42419,1.52356 -1.42419,2.8815 0,1.08195 0.35328,1.94309 1.05986,2.58342 0.71761,0.62929 1.68915,0.94394 2.91462,0.94394 1.68915,0 3.04157,-0.59617 4.05729,-1.78852 1.02672,-1.20338 1.54009,-2.79869 1.54011,-4.78594 l 0,-0.67897 -3.03054,0 m 6.07764,-1.25859 0,10.58206 -3.0471,0 0,-2.81526 c -0.69555,1.12611 -1.56221,1.95964 -2.59997,2.50061 -1.0378,0.52993 -2.30742,0.7949 -3.80888,0.7949 -1.89893,0 -3.41144,-0.52993 -4.53754,-1.58979 -1.11506,-1.0709 -1.67259,-2.50061 -1.67259,-4.28913 0,-2.0866 0.69553,-3.65983 2.0866,-4.7197 1.40211,-1.05985 3.48871,-1.58978 6.25981,-1.58979 l 4.27257,0 0,-0.29809 c -2e-5,-1.40209 -0.4637,-2.48403 -1.39107,-3.24583 -0.91635,-0.77279 -2.20806,-1.1592 -3.87512,-1.15922 -1.05987,2e-5 -2.09213,0.12698 -3.09678,0.38089 -1.00467,0.25394 -1.97069,0.63483 -2.89806,1.14266 l 0,-2.81526 c 1.11506,-0.43055 2.197,-0.75071 3.24582,-0.9605 1.04882,-0.22078 2.07004,-0.33118 3.06367,-0.3312 2.68276,2e-5 4.68656,0.69555 6.0114,2.0866 1.32481,1.39109 1.98722,3.49977 1.98724,6.32605" /><path
         inkscape:connector-curvature="0"
         id="path3067"
         d="m 211.06607,251.70606 0,11.19479 -3.0471,0 0,-11.09543 c -2e-5,-1.75538 -0.34226,-3.06917 -1.02674,-3.94136 -0.68451,-0.87216 -1.71125,-1.30825 -3.08023,-1.30827 -1.645,2e-5 -2.94223,0.52443 -3.89168,1.57323 -0.94946,1.04884 -1.42419,2.47855 -1.42419,4.28913 l 0,10.4827 -3.06366,0 0,-18.54758 3.06366,0 0,2.8815 c 0.72865,-1.11505 1.58427,-1.94859 2.56686,-2.50061 0.99361,-0.552 2.13627,-0.828 3.42799,-0.82802 2.13075,2e-5 3.74262,0.66243 4.83562,1.98724 1.09296,1.3138 1.63945,3.25136 1.63947,5.81268" /><path
         inkscape:connector-curvature="0"
         id="path3069"
         d="m 219.09784,258.69452 3.36174,0 0,4.20633 -3.36174,0 0,-4.20633 m 0,-20.51826 3.36174,0 0,10.84702 -0.3312,5.91204 -2.68278,0 -0.34776,-5.91204 0,-10.84702" /></g></g></svg>