<?xml version="1.0" encoding="UTF-8" standalone="no"?>
<!-- Created with Inkscape (http://www.inkscape.org/) -->

<svg
   xmlns:dc="http://purl.org/dc/elements/1.1/"
   xmlns:cc="http://creativecommons.org/ns#"
   xmlns:rdf="http://www.w3.org/1999/02/22-rdf-syntax-ns#"
   xmlns:svg="http://www.w3.org/2000/svg"
   xmlns="http://www.w3.org/2000/svg"
   xmlns:sodipodi="http://sodipodi.sourceforge.net/DTD/sodipodi-0.dtd"
   xmlns:inkscape="http://www.inkscape.org/namespaces/inkscape"
   id="Layer_1"
   sodipodi:docname="duck-bubble.svg"
   xml:space="preserve"
   version="1.0"
   inkscape:version="0.48.4 r9939"
   viewBox="0 0 184.94989 270.24164"
   width="100%"
   height="100%"><defs
     id="defs34" /><sodipodi:namedview
     id="namedview229"
     fit-margin-left="0"
     inkscape:zoom="0.96962993"
     borderopacity="1"
     inkscape:current-layer="Layer_1"
     inkscape:cx="-126.57432"
     inkscape:cy="100.40026"
     inkscape:window-maximized="1"
     showgrid="false"
     fit-margin-right="0"
     bordercolor="#666666"
     inkscape:window-x="0"
     guidetolerance="10"
     objecttolerance="10"
     inkscape:window-y="0"
     fit-margin-bottom="0"
     inkscape:window-width="1280"
     inkscape:pageopacity="0"
     inkscape:pageshadow="2"
     pagecolor="#ffffff"
     gridtolerance="10"
     inkscape:window-height="775"
     fit-margin-top="0" /><g
     id="g3069"><path
       id="path4721_1_"
       style="fill:#010101;fill-opacity:0.3137"
       inkscape:connector-curvature="0"
       d="m 175.32,236.9 c 0,13.644 -36.77,24.703 -82.13,24.703 -45.358,0 -82.13,-11.06 -82.13,-24.703 0,-13.643 36.771,-24.703 82.13,-24.703 45.361,0 82.13,11.06 82.13,24.703 z" /><g
       id="g4073"
       transform="matrix(0.87973,0,0,1,-129.578,-155.63051)"><path
         id="path4067"
         d="m 228.07,384.02 c -1.639,2.6558 -6.8552,6.1791 -23.392,5.5302 l -8.1981,22.13 c 0.28385,9.5959 25.086,10.222 26.983,10.255 1.9661,0.47181 26.016,6.0402 28.693,-3.1507 l -2.378,-23.48 c -16.172,-3.5252 -20.373,-8.25 -21.292,-11.232 l -0.12688,-0.50983 z"
         sodipodi:nodetypes="ccccccccc"
         style="fill:#fbb045;stroke:#000000;stroke-width:3.90829992"
         inkscape:connector-curvature="0" /><path
         id="path4071"
         sodipodi:nodetypes="ccccccccc"
         style="fill:#fbb045;stroke:#000000;stroke-width:3.90829992"
         inkscape:connector-curvature="0"
         d="m 278.18,384.02 c 1.639,2.6558 6.8552,6.1791 23.392,5.5302 l 8.1981,22.13 c -0.28385,9.5959 -25.086,10.222 -26.983,10.255 -1.9661,0.47181 -26.016,6.0402 -28.693,-3.1507 l 2.378,-23.48 c 16.172,-3.5252 20.373,-8.25 21.292,-11.232 l 0.12688,-0.50983 z" /></g><path
       id="path2383"
       d="m 167.54,176.11 c 0.012,41.071 -33.279,74.372 -74.349,74.372 -41.071,0 -74.362,-33.301 -74.349,-74.372 -0.013,-41.07 33.278,-74.371 74.349,-74.371 41.07,0 74.361,33.301 74.349,74.371 z"
       style="fill:#bdb76b;stroke:#010101;stroke-width:4;stroke-linecap:round;stroke-linejoin:round"
       inkscape:connector-curvature="0" /><path
       id="path3221"
       d="m 163.04,150.6 c 0.052,1.142 0.085,2.304 0.085,3.457 0,41.042 -33.305,74.347 -74.345,74.347 -32.081,0 -59.454,-20.362 -69.871,-48.851 1.801,39.445 34.396,70.91 74.283,70.91 41.039,0 74.345,-33.305 74.345,-74.346 0,-8.96 -1.587,-17.559 -4.497,-25.517 z"
       style="fill:#010101;fill-opacity:0.3137"
       inkscape:connector-curvature="0" /><g
       id="g350"
       transform="matrix(0.86763,-0.36938372,0.4972,0.64458648,-559.18,27.414401)"><path
         id="path3800_2_"
         d="m 521.82,462.84 c -32.656,11.743 9.613,63.9 -25.67,109.41 -6.522,8.412 39.278,1.419 55.47,-45.195 15.746,-45.332 0.769,-72.994 -29.8,-64.216 z"
         style="fill:#daa520;stroke:#010101;stroke-width:4"
         inkscape:connector-curvature="0" /><path
         id="path3200_1_"
         d="m 532.52,461.22 c -0.28,0 -0.564,0.014 -0.849,0.021 11.004,8.867 15.661,29.388 10.033,57.928 -7.482,37.939 -36.366,54.307 -45.965,55.171 3.116,4.43 41.384,-5.516 55.892,-47.28 13.778,-39.665 4.018,-65.806 -19.111,-65.84 z"
         style="fill:#010101;fill-opacity:0.3137"
         inkscape:connector-curvature="0" /></g><g
       id="g354"
       transform="matrix(0.91424,0.30101207,-0.40517,0.67921434,-136.893,-308.61186)"><path
         id="path3169_2_"
         d="m 415.63,462.84 c 32.656,11.743 -9.613,63.9 25.67,109.41 6.522,8.412 -39.278,1.419 -55.47,-45.195 -15.746,-45.332 -0.769,-72.994 29.8,-64.216 z"
         style="fill:#daa520;stroke:#010101;stroke-width:4"
         inkscape:connector-curvature="0" /><path
         id="path3205_6_"
         d="m 380.9,483.74 c -2.343,11.204 -0.882,26.25 5.281,43.992 16.192,46.614 61.989,53.613 55.468,45.201 -2.789,-3.597 -5.104,-7.245 -7,-10.902 -12.863,-3.082 -36.686,-16.546 -47.45,-47.534 -3.99,-11.489 -6.009,-21.844 -6.299,-30.757 z"
         style="fill:#010101;fill-opacity:0.3137"
         inkscape:connector-curvature="0" /></g><path
       id="path2399"
       d="M 57.53,126.32 C 74.16,100.593 71.105,38.941 71.105,38.941 l 40.726,-2.218 c 0,0 -1.019,62.097 15.95,88.267"
       style="fill:#ffd700;stroke:#010101;stroke-width:4;stroke-linecap:round;stroke-linejoin:round"
       inkscape:connector-curvature="0" /><ellipse
       id="ellipse359"
       sodipodi:rx="34.108002"
       sodipodi:ry="11.539"
       style="fill:#ffd700"
       d="m 502.548,462.70001 c 0,6.37282 -15.27067,11.539 -34.108,11.539 -18.83733,0 -34.108,-5.16618 -34.108,-11.539 0,-6.37281 15.27067,-11.539 34.108,-11.539 18.83733,0 34.108,5.16619 34.108,11.539 z"
       cx="468.44"
       cy="462.70001"
       rx="34.108002"
       transform="translate(-375.54,-334.67)"
       ry="11.539"
       sodipodi:cy="462.70001"
       sodipodi:cx="468.44" /><path
       id="path3214"
       d="m 111.82,36.72 -11.645,0.636 -29.081,1.591 c 0,0 0.164,3.295 0.213,8.527 8.932,5.604 17.933,8.867 24.244,8.867 2.259,0 4.823,-0.389 7.572,-1.125 4.199,22.631 11.992,54.534 24.456,69.574 l -0.679,0.232 0.87,-0.021 c -11.68,-18.012 -14.82,-53.047 -15.654,-73.137 -0.094,-2.275 -0.166,-4.369 -0.212,-6.215 -0.035,-1.476 -0.052,-2.781 -0.063,-3.924 -0.012,-0.921 -0.019,-1.613 -0.021,-2.291 -0.004,-1.052 -0.004,-1.187 0,-1.633 0.002,-0.708 0,-1.081 0,-1.081 z"
       style="fill:#010101;fill-opacity:0.3137"
       inkscape:connector-curvature="0" /><path
       id="path362"
       d="M 125.94,11.86 C 117.104,5.643 105.888,1.996 92.715,1.996 c -11.985,0 -22.209,2.85 -30.503,7.799 -9.486,6.557 -17.105,16.083 -21.778,27.396 -2.153,6.305 -3.271,13.17 -3.271,20.357 0,30.663 38.096,55.552 55.552,55.552 18.135,0 55.552,-24.889 55.552,-55.552 0,-7.406 -1.242,-14.472 -3.599,-20.934 -4.212,-9.928 -10.7,-18.452 -18.728,-24.754 z"
       style="fill:#008000;stroke:#010101;stroke-width:4;stroke-linecap:round;stroke-linejoin:round"
       inkscape:connector-curvature="0" /><path
       id="path3231"
       d="m 143.7,31.13 c 1.191,5.181 1.782,10.672 1.782,16.375 0,30.663 -37.418,55.553 -55.552,55.553 -14.055,0 -41.471,-16.125 -51.629,-38.414 5.169,27.318 38.807,48.447 54.896,48.447 18.133,0 55.552,-24.89 55.552,-55.552 0,-9.558 -1.639,-18.553 -5.049,-26.409 z"
       style="fill:#010101;fill-opacity:0.3137"
       inkscape:connector-curvature="0" /><path
       id="path2387_1_"
       d="m 75.15,17.97 c -12.521,0 -22.688,11.756 -22.688,26.242 0,14.485 10.167,26.241 22.688,26.241 7.355,0 13.885,-4.063 18.029,-10.353 4.145,6.293 10.687,10.353 18.047,10.353 12.519,0 22.688,-11.756 22.688,-26.241 0,-14.486 -10.169,-26.242 -22.688,-26.242 -7.358,0 -13.902,4.061 -18.047,10.353 C 89.035,22.037 82.506,17.97 75.15,17.97 z"
       style="stroke:#010101;stroke-width:4;stroke-linecap:round"
       inkscape:connector-curvature="0" /><path
       id="path3277"
       d="m 93.45,61.55 c -1.2897,2.8419 -6.018,6.9971 -22.504,8.4467 l -5.331,22.99 c 1.4962,9.4828 26.178,6.9639 28.064,6.7574 2.01,0.21914 26.572,2.6985 28.064,-6.7574 l -5.331,-22.99 C 99.924,68.5469 95.159,64.3919 93.87,61.55 l -0.19039,-0.48966 z"
       sodipodi:nodetypes="ccccccccc"
       style="fill:#fbb045;stroke:#000000;stroke-width:3.90829992"
       inkscape:connector-curvature="0" /><path
       inkscape:connector-curvature="0"
       style="fill:#ffffff;stroke:#010101;stroke-width:4;stroke-linecap:round"
       d="m 77.79,21.804 c -10.689,0 -19.371,10.037 -19.371,22.405 0,12.368 8.682,22.405 19.371,22.405 6.281,0 11.855,-3.47 15.394,-8.839 3.539,5.374 9.125,8.839 15.409,8.839 10.688,0 19.371,-10.037 19.371,-22.405 0,-12.368 -8.683,-22.405 -19.371,-22.405 -6.283,0 -11.87,3.467 -15.409,8.839 C 89.646,25.276 84.07,21.804 77.79,21.804 z"
       id="path2387_4_" /><g
       transform="matrix(1.5454222,0,0,1.9585991,-50.971069,-43.830507)"
       id="g3061"><g
         id="g380"
         transform="translate(-158.81,-91.706)"><path
           id="path2411_1_"
           d="m 250.77,137.43 c 0,3.097 -2.511,5.607 -5.607,5.607 -3.098,0 -5.608,-2.511 -5.608,-5.607 0,-3.097 2.511,-5.608 5.608,-5.608 3.096,0 5.607,2.51 5.607,5.608 z"
           style="fill:#010101;stroke:#010101;stroke-width:4;stroke-linecap:round"
           inkscape:connector-curvature="0" /><path
           id="path3341_1_"
           d="m 244.59,135.47 c 0,0.803 -0.65,1.454 -1.454,1.454 -0.803,0 -1.454,-0.651 -1.454,-1.454 0,-0.804 0.651,-1.455 1.454,-1.455 0.804,0 1.454,0.651 1.454,1.455 z"
           style="fill:#ffffff"
           inkscape:connector-curvature="0" /></g><g
         id="g384"
         transform="translate(-158.81,-91.706)"><path
           id="path3301_1_"
           d="m 264.97,137.43 c 0,3.097 -2.511,5.607 -5.607,5.607 -3.098,0 -5.608,-2.511 -5.608,-5.607 0,-3.097 2.511,-5.608 5.608,-5.608 3.096,0 5.607,2.51 5.607,5.608 z"
           style="fill:#010101;stroke:#010101;stroke-width:4;stroke-linecap:round"
           inkscape:connector-curvature="0" /><path
           id="path3343_1_"
           d="m 258.79,135.47 c 0,0.803 -0.65,1.454 -1.454,1.454 -0.804,0 -1.454,-0.651 -1.454,-1.454 0,-0.804 0.65,-1.455 1.454,-1.455 0.804,0 1.454,0.651 1.454,1.455 z"
           style="fill:#ffffff"
           inkscape:connector-curvature="0" /></g></g></g><metadata
     id="metadata32"><rdf:RDF><cc:Work><dc:format>image/svg+xml</dc:format><dc:type
           rdf:resource="http://purl.org/dc/dcmitype/StillImage" /><cc:license
           rdf:resource="http://creativecommons.org/licenses/publicdomain/" /><dc:publisher><cc:Agent
             rdf:about="http://openclipart.org/"><dc:title>Openclipart</dc:title></cc:Agent></dc:publisher><dc:title>Cartoon Duck</dc:title><dc:date>2012-06-21T09:31:23</dc:date><dc:description /><dc:source>https://openclipart.org/detail/170850/cartoon-duck-by-paweo111-170850</dc:source><dc:creator><cc:Agent><dc:title>paweo111</dc:title></cc:Agent></dc:creator><dc:subject><rdf:Bag><rdf:li>canard</rdf:li><rdf:li>cartoon</rdf:li><rdf:li>duck</rdf:li><rdf:li>funny</rdf:li></rdf:Bag></dc:subject></cc:Work><cc:License
         rdf:about="http://creativecommons.org/licenses/publicdomain/"><cc:permits
           rdf:resource="http://creativecommons.org/ns#Reproduction" /><cc:permits
           rdf:resource="http://creativecommons.org/ns#Distribution" /><cc:permits
           rdf:resource="http://creativecommons.org/ns#DerivativeWorks" /></cc:License></rdf:RDF></metadata><g
     id="g3102"><path
       sodipodi:nodetypes="ccccssscc"
       inkscape:connector-curvature="0"
       id="path4443"
       d="m 80.690901,103.55638 c 3.294444,6.0286 0.715982,10.5735 -7.206827,13.76823 -9.702063,3.42503 -16.035905,7.99234 -17.033047,13.13142 l 0,0.0617 c -2.111795,11.46845 23.196783,21.36898 56.614153,22.13233 33.49737,0.76516 62.43697,-7.92634 64.66705,-19.41972 2.23005,-11.4934 -23.11679,-21.4288 -56.61418,-22.19396 -11.71212,-0.26755 -22.849752,0.61248 -32.504332,2.37352 -2.032917,-7.77073 -7.922817,-9.85347 -7.922817,-9.85347 z"
       style="fill:#ffffff;fill-opacity:1;stroke:#000000;stroke-width:1.95850968;stroke-miterlimit:4;stroke-opacity:1;stroke-dasharray:none" /><text
       sodipodi:linespacing="125%"
       id="text3098"
       y="139.04007"
       x="63.701176"
       style="font-size:20.88767624px;font-style:normal;font-weight:normal;line-height:125%;letter-spacing:0px;word-spacing:0px;fill:#000000;fill-opacity:1;stroke:none;font-family:Sans"
       xml:space="preserve"><tspan
         style="fill:#ffffff;stroke:#000000;stroke-width:0.52219194"
         y="139.04007"
         x="63.701176"
         id="tspan3100"
         sodipodi:role="line">Coin-Coin!</tspan></text>
</g></svg>