<?xml version="1.0" encoding="UTF-8" standalone="no"?>
<!-- Created with Inkscape (http://www.inkscape.org/) -->

<svg
   xmlns:dc="http://purl.org/dc/elements/1.1/"
   xmlns:cc="http://creativecommons.org/ns#"
   xmlns:rdf="http://www.w3.org/1999/02/22-rdf-syntax-ns#"
   xmlns:svg="http://www.w3.org/2000/svg"
   xmlns="http://www.w3.org/2000/svg"
   xmlns:sodipodi="http://sodipodi.sourceforge.net/DTD/sodipodi-0.dtd"
   xmlns:inkscape="http://www.inkscape.org/namespaces/inkscape"
   id="svg2"
   sodipodi:docname="frog (copie).svg"
   viewBox="0 0 224.66 254.27"
   sodipodi:version="0.32"
   version="1.0"
   inkscape:output_extension="org.inkscape.output.svg.inkscape"
   inkscape:version="0.48.4 r9939"
   width="100%"
   height="100%">
  <defs
     id="defs30" />
  <sodipodi:namedview
     id="base"
     bordercolor="#666666"
     inkscape:pageshadow="2"
     guidetolerance="10.0"
     pagecolor="#ffffff"
     gridtolerance="10.0"
     inkscape:zoom="1.4405478"
     objecttolerance="10.0"
     borderopacity="1.0"
     inkscape:current-layer="svg2"
     inkscape:cx="77.607744"
     inkscape:cy="76.085115"
     inkscape:window-y="49"
     inkscape:window-x="306"
     inkscape:window-height="706"
     showgrid="false"
     inkscape:pageopacity="0.0"
     inkscape:window-width="872"
     inkscape:window-maximized="0" />
  <metadata
     id="metadata28">
    <rdf:RDF>
      <cc:Work>
        <dc:format>image/svg+xml</dc:format>
        <dc:type
           rdf:resource="http://purl.org/dc/dcmitype/StillImage" />
        <cc:license
           rdf:resource="http://creativecommons.org/licenses/publicdomain/" />
        <dc:publisher>
          <cc:Agent
             rdf:about="http://openclipart.org/">
            <dc:title>Openclipart</dc:title>
          </cc:Agent>
        </dc:publisher>
        <dc:title>Cartoon Frog</dc:title>
        <dc:date>2010-07-03T09:40:36</dc:date>
        <dc:description>A green frog remix based on the cartoon animal style by StudioFibonacci and lemmling.</dc:description>
        <dc:source>https://openclipart.org/detail/69823/cartoon-frog-by-roland81</dc:source>
        <dc:creator>
          <cc:Agent>
            <dc:title>roland81</dc:title>
          </cc:Agent>
        </dc:creator>
        <dc:subject>
          <rdf:Bag>
            <rdf:li>animal</rdf:li>
            <rdf:li>cartoon</rdf:li>
            <rdf:li>frog</rdf:li>
            <rdf:li>funny</rdf:li>
            <rdf:li>water</rdf:li>
          </rdf:Bag>
        </dc:subject>
      </cc:Work>
      <cc:License
         rdf:about="http://creativecommons.org/licenses/publicdomain/">
        <cc:permits
           rdf:resource="http://creativecommons.org/ns#Reproduction" />
        <cc:permits
           rdf:resource="http://creativecommons.org/ns#Distribution" />
        <cc:permits
           rdf:resource="http://creativecommons.org/ns#DerivativeWorks" />
      </cc:License>
    </rdf:RDF>
  </metadata>
  <g
     id="g3830">
    <path
       id="path9218"
       sodipodi:nodetypes="cssss"
       style="fill:#36d622;stroke:#000000;stroke-width:4;stroke-linecap:round;stroke-linejoin:round"
       d="m 32.355,235.92 c 2,8.8 -6.353,9.29 -11.137,9.38 -8.266,0.16 -13.101,-0.78 -12.61,-6.44 0.428,-4.93 6.811,-6.08 12.119,-6.08 5.307,0 11.036,0.53 11.628,3.14 z"
       inkscape:connector-curvature="0" />
    <path
       id="path2383"
       sodipodi:nodetypes="cscsc"
       style="fill:#1feb04;stroke:#000000;stroke-width:3.65969992;stroke-linecap:round;stroke-linejoin:round"
       d="m 223.04,187.77 c 0.01,50.57 -50.09,54.27 -110.69,54.27 C 51.746,242.04 5.08,235.4 5.1,184.82 5.0775,134.25 51.746,58.89 112.35,58.89 c 60.6,-0.004 110.7,78.31 110.69,128.88 z"
       inkscape:connector-curvature="0" />
    <path
       id="path3221"
       sodipodi:nodetypes="cscscc"
       style="fill:#000000;fill-opacity:0.31373004"
       d="m 213.92,152.34 c 0,60.46 -46.62,64.37 -107.08,64.37 -47.263,0 -87.592,-2.51 -98.521,-56.75 -15.999,81.18 45.274,81.89 104.04,81.89 60.46,0 111.98,-2.44 111.98,-62.9 0.07,-15.28 -2.59,-15.79 -10.42,-26.61 z"
       inkscape:connector-curvature="0" />
    <path
       id="path3155"
       sodipodi:nodetypes="cssz"
       style="fill:#3de826;stroke:#000000;stroke-width:4;stroke-linecap:round;stroke-linejoin:round"
       d="m 27.554,97.564 c -6.705,64.256 60.247,84.336 84.296,88.226 26.38,4.26 92.27,-21.29 89.7,-83.32 -3.06,-73.612 -167.29,-69.165 -174,-4.906 z"
       inkscape:connector-curvature="0" />
    <path
       id="path9210"
       style="fill:#000000;fill-opacity:0.31373004"
       d="m 176.37,62.167 c 0,11.577 -15.78,20.972 -23.43,20.972 -7.36,0 -23.42,-9.395 -23.42,-20.972 0,-11.576 7.05,-20.971 23.42,-20.971 16.38,0 23.43,9.395 23.43,20.971 z"
       inkscape:connector-curvature="0" />
    <path
       id="path3159"
       style="fill:#ffffff;stroke:#000000;stroke-width:4;stroke-linecap:round;stroke-linejoin:round"
       d="m 172.25,52.199 c 0,12.519 -10.14,22.67 -22.66,22.67 -12.52,0 -22.67,-10.151 -22.66,-22.67 -0.01,-12.519 10.14,-22.669 22.66,-22.669 12.52,0 22.66,10.15 22.66,22.669 z"
       inkscape:connector-curvature="0" />
    <path
       id="path3161"
       style="fill:#000000"
       d="m 160.19215,64.7772 c 0,5.928401 -4.80182,10.734482 -10.72596,10.734482 -5.93835,0 -10.74017,-4.806081 -10.74017,-10.734482 0,-5.9284 4.80182,-10.735902 10.74017,-10.735902 5.92414,0 10.72596,4.807502 10.72596,10.735902 z"
       inkscape:connector-curvature="0" />
    <path
       id="path3236"
       style="fill:#000000;fill-opacity:0.31373004"
       d="m 101.76,71.494 c 0,11.576 -15.781,20.971 -23.428,20.971 -7.362,0 -23.426,-9.395 -23.426,-20.971 0,-11.576 7.049,-20.971 23.426,-20.971 16.38,0 23.428,9.395 23.428,20.971 z"
       inkscape:connector-curvature="0" />
    <path
       id="path3157"
       style="fill:#ffffff;stroke:#000000;stroke-width:4;stroke-linecap:round;stroke-linejoin:round"
       d="M 98.902,61.114 C 98.906,73.633 88.758,84.188 76.239,84.686 63.72,85.184 53.573,75.438 53.576,62.918 53.573,50.4 63.72,39.845 76.239,39.347 88.758,38.849 98.906,48.595 98.902,61.114 z"
       inkscape:connector-curvature="0" />
    <path
       id="path3231"
       style="fill:#000000;fill-opacity:0.31373004"
       d="m 199.56,92.841 -1.97,2.284 c 0.26,2.645 0.36,5.335 0.36,8.065 0,38.84 -58.12,70.38 -86.29,70.38 -21.829,0 -64.413,-20.43 -80.192,-48.67 8.03,34.61 60.277,61.38 85.262,61.38 28.17,0 86.29,-31.53 86.29,-70.38 0,-8.08 -1.13,-15.83 -3.46,-23.059 z"
       inkscape:connector-curvature="0" />
    <path
       id="path2398"
       style="fill:#000000"
       d="m 131.89,111.5 c -2.29,3.98 -6.5,5.84 -9.4,4.17 -2.89,-1.67 -3.38,-6.25 -1.09,-10.22 2.3,-3.97 6.5,-5.839 9.4,-4.17 2.9,1.68 3.38,6.25 1.09,10.22 z"
       inkscape:connector-curvature="0" />
    <path
       id="path2412"
       style="fill:#000000"
       d="m 103.08,112.98 c 2.29,3.97 6.5,5.84 9.4,4.16 2.89,-1.67 3.38,-6.25 1.09,-10.22 -2.3,-3.97 -6.5,-5.84 -9.4,-4.16 -2.9,1.67 -3.38,6.24 -1.09,10.22 z"
       inkscape:connector-curvature="0" />
    <path
       id="path3163"
       style="fill:#000000"
       d="m 86.489246,51.056185 c 0.0014,5.928401 -4.804661,10.735903 -10.733061,10.735903 -5.928401,0 -10.733062,-4.807502 -10.731641,-10.735903 -0.0014,-5.9284 4.80324,-10.734482 10.731641,-10.734482 5.9284,0 10.734482,4.806082 10.733061,10.734482 z"
       inkscape:connector-curvature="0" />
    <path
       id="path9216"
       sodipodi:nodetypes="cssss"
       style="fill:#36d622;stroke:#000000;stroke-width:4;stroke-linecap:round;stroke-linejoin:round"
       d="m 46.59,235.43 c 1.999,8.8 -6.353,9.29 -11.137,9.38 -8.266,0.15 -13.101,-0.78 -12.61,-6.44 0.428,-4.93 6.811,-6.08 12.119,-6.08 5.307,0 11.036,0.53 11.628,3.14 z"
       inkscape:connector-curvature="0" />
    <path
       id="path9214"
       sodipodi:nodetypes="cssss"
       style="fill:#36d622;stroke:#000000;stroke-width:4;stroke-linecap:round;stroke-linejoin:round"
       d="m 63.97,235.02 c 1.999,8.8 -6.353,9.29 -11.138,9.38 -8.265,0.15 -13.1,-0.78 -12.609,-6.44 0.428,-4.93 6.811,-6.08 12.119,-6.08 5.307,0 11.035,0.53 11.628,3.14 z"
       inkscape:connector-curvature="0" />
    <path
       id="path9212"
       sodipodi:nodetypes="csssc"
       style="fill:#36d622;stroke:#000000;stroke-width:4;stroke-linecap:round;stroke-linejoin:round"
       d="m 103.17,236 c 0,9.09 -10.766,10.27 -22.423,10.36 -8.267,0.07 -21.559,0.08 -19.973,-9.87 1.964,-12.31 9.794,-12.59 19.482,-13.44 11.198,-0.98 18.501,2.6 22.914,12.95 z"
       inkscape:connector-curvature="0" />
    <path
       id="path9220"
       sodipodi:nodetypes="cssss"
       style="fill:#36d622;stroke:#000000;stroke-width:4;stroke-linecap:round;stroke-linejoin:round"
       d="m 187.26,235.43 c -2,8.8 6.35,9.29 11.14,9.38 8.26,0.15 13.1,-0.78 12.61,-6.44 -0.43,-4.93 -6.82,-6.08 -12.12,-6.08 -5.31,0 -11.04,0.53 -11.63,3.14 z"
       inkscape:connector-curvature="0" />
    <path
       id="path9222"
       sodipodi:nodetypes="cssss"
       style="fill:#36d622;stroke:#000000;stroke-width:4;stroke-linecap:round;stroke-linejoin:round"
       d="m 173.02,234.94 c -2,8.8 6.36,9.29 11.14,9.38 8.27,0.15 13.1,-0.78 12.61,-6.44 -0.43,-4.93 -6.81,-6.08 -12.12,-6.08 -5.31,0 -11.03,0.53 -11.63,3.14 z"
       inkscape:connector-curvature="0" />
    <path
       id="path9224"
       sodipodi:nodetypes="cssss"
       style="fill:#36d622;stroke:#000000;stroke-width:4;stroke-linecap:round;stroke-linejoin:round"
       d="m 155.64,234.52 c -2,8.81 6.36,9.3 11.14,9.39 8.27,0.15 13.1,-0.78 12.61,-6.44 -0.43,-4.93 -6.81,-6.08 -12.12,-6.08 -5.3,0 -11.03,0.53 -11.63,3.13 z"
       inkscape:connector-curvature="0" />
    <path
       id="path3172"
       sodipodi:nodetypes="csssc"
       style="fill:#36d622;stroke:#000000;stroke-width:4;stroke-linecap:round;stroke-linejoin:round"
       d="m 122,236 c 0,9.09 10.77,10.27 22.43,10.36 8.27,0.07 21.56,0.08 19.97,-9.87 -1.96,-12.31 -9.79,-12.59 -19.48,-13.44 -11.2,-0.98 -18.5,2.6 -22.92,12.95 z"
       inkscape:connector-curvature="0" />
    <path
       id="path9226"
       sodipodi:nodetypes="cssz"
       style="fill:#3de826;stroke:#000000;stroke-width:3;stroke-linecap:round;stroke-linejoin:round"
       d="m 57.022,42.932 c -3.58,15.545 4.673,-5.037 19.505,-5.039 15.041,-10e-4 23.673,18.81 21.468,8.966 C 92.74,23.368 60.71,26.92 57.022,42.932 z"
       inkscape:connector-curvature="0" />
    <path
       id="path9228"
       sodipodi:nodetypes="cssz"
       style="fill:#3de826;stroke:#000000;stroke-width:3;stroke-linecap:round;stroke-linejoin:round"
       d="m 169.76,34.133 c 3.58,15.545 -4.18,-4.055 -19.51,-5.039 -13.05,-0.837 -23.67,18.81 -21.46,8.966 5.25,-23.491 37.28,-19.939 40.97,-3.927 z"
       inkscape:connector-curvature="0" />
    <path
       sodipodi:open="true"
       sodipodi:end="6.2831644"
       sodipodi:start="0"
       d="m 146.76703,153.88921 a 30.678726,13.00778 0 1 1 0,-2.8e-4"
       sodipodi:ry="13.00778"
       sodipodi:rx="30.678726"
       sodipodi:cy="153.88921"
       sodipodi:cx="116.0883"
       id="path3030"
       style="fill:#ffffff;stroke:#000000;stroke-width:2;stroke-linecap:round;stroke-linejoin:bevel;stroke-miterlimit:4;stroke-opacity:1;stroke-dasharray:none;stroke-dashoffset:0"
       sodipodi:type="arc" />
  </g>
  <g
     id="g3825">
    <path
       inkscape:connector-curvature="0"
       id="path3030-9"
       d="m 116.08956,156.13525 -25.9459,22.38981 c -3.377646,-0.26761 -6.848636,-0.421 -10.463587,-0.421 -25.670753,0 -46.494303,7.12311 -46.494303,15.92166 0,8.79854 20.82355,15.92164 46.494303,15.92164 25.670757,0 46.446947,-7.1231 46.446947,-15.92164 -3e-4,-5.04409 -6.84429,-9.51983 -17.51822,-12.4388 l 7.48076,-25.45167 z"
       style="fill:#ffffff;stroke:#000000;stroke-width:2.99999995;stroke-linecap:round;stroke-linejoin:bevel;stroke-miterlimit:4;stroke-opacity:1;stroke-dasharray:none;stroke-dashoffset:0" />
    <text
       sodipodi:linespacing="125%"
       id="text3821"
       y="202.04324"
       x="44.987595"
       style="font-size:21.44095039px;font-style:normal;font-weight:normal;line-height:125%;letter-spacing:0px;word-spacing:0px;fill:#ffffff;fill-opacity:1;stroke:#000000;stroke-width:0.95600855;font-family:Sans"
       xml:space="preserve"><tspan
         style="stroke-width:0.95600855"
         y="202.04324"
         x="44.987595"
         id="tspan3823"
         sodipodi:role="line">Croaa!</tspan></text>
  </g>
</svg>
