<?xml version="1.0" encoding="UTF-8" standalone="no"?>
<!-- Created with Inkscape (http://www.inkscape.org/) -->

<svg
   xmlns:dc="http://purl.org/dc/elements/1.1/"
   xmlns:cc="http://creativecommons.org/ns#"
   xmlns:rdf="http://www.w3.org/1999/02/22-rdf-syntax-ns#"
   xmlns:svg="http://www.w3.org/2000/svg"
   xmlns="http://www.w3.org/2000/svg"
   xmlns:sodipodi="http://sodipodi.sourceforge.net/DTD/sodipodi-0.dtd"
   xmlns:inkscape="http://www.inkscape.org/namespaces/inkscape"
   id="svg2"
   sodipodi:docname="pig (copie).svg"
   viewBox="0 0 250 300"
   sodipodi:version="0.32"
   version="1.0"
   inkscape:output_extension="org.inkscape.output.svg.inkscape"
   inkscape:version="0.48.4 r9939"
   width="100%"
   height="100%">
  <defs
     id="defs31" />
  <sodipodi:namedview
     id="base"
     bordercolor="#666666"
     inkscape:pageshadow="2"
     guidetolerance="10.0"
     pagecolor="#ffffff"
     gridtolerance="10.0"
     inkscape:zoom="3.067281"
     objecttolerance="10.0"
     borderopacity="1.0"
     inkscape:current-layer="svg2"
     inkscape:cx="176.17147"
     inkscape:cy="154.49647"
     inkscape:window-y="0"
     inkscape:window-x="52"
     inkscape:window-height="701"
     showgrid="false"
     inkscape:pageopacity="0.0"
     inkscape:window-width="1224"
     inkscape:window-maximized="0" />
  <g
     id="g3915">
    <path
       inkscape:connector-curvature="0"
       id="path2980"
       style="text-indent:0;text-transform:none;block-progression:tb;fill:#ffaaaa;stroke:#000000;stroke-width:1.63;stroke-miterlimit:4;stroke-dasharray:none"
       d="m 237.9843,105.22691 c -2.3038,-1.36685 -4.81923,-2.20569 -7.33234,-2.31756 -1.17153,-0.0538 -1.93819,0.91539 -1.72073,2.16111 0.21745,1.24572 1.339,2.29635 2.51082,2.34938 5.62124,0.25297 11.3355,5.63631 12.07996,12.09952 0.67198,5.7642 -2.98554,10.77393 -8.59395,11.74585 0.47728,-1.50654 0.79864,-3.08779 0.82204,-4.77033 0.10065,-8.45334 -5.98621,-16.15726 -12.57412,-17.23651 -6.8277,-1.11514 -10.98592,5.46937 -8.38183,12.97773 0.14146,0.41018 0.30403,0.81762 0.47028,1.21436 -1.79839,-2.04537 -4.00778,-3.51086 -6.35556,-3.95707 -2.9529,-0.56364 -5.42794,0.65206 -6.65439,2.84221 -1.21546,2.15807 -1.25801,5.24667 0.11808,8.43307 -1.73766,-1.95789 -3.9263,-3.337 -6.22862,-3.65136 -5.30268,-0.71051 -8.41029,4.69468 -6.05168,10.56926 1.23267,3.04613 3.56642,5.67606 6.44988,7.52789 -0.59692,0.15233 -1.20227,0.27043 -1.86377,0.25847 -3.70163,-0.0575 -7.22299,-2.98806 -8.11515,-5.93921 -0.23563,-0.81121 -0.8514,-1.51403 -1.61109,-1.85664 -0.75971,-0.34258 -1.54516,-0.25795 -2.04953,0.21201 -0.51561,0.4734 -0.67687,1.26566 -0.42153,2.07823 1.69174,5.58466 7.41299,9.92029 13.09914,10.0137 2.69951,0.0389 5.00027,-0.87503 6.75835,-2.3816 1.39873,0.30251 2.82855,0.48524 4.26147,0.39476 4.69565,-0.28194 8.46456,-2.70982 10.65541,-6.26861 1.41853,0.21557 2.84279,0.3264 4.28699,0.20304 4.65638,-0.40242 8.4741,-2.67888 10.98987,-6.00916 0.60853,0.0487 1.22245,0.0818 1.83331,0.065 8.58224,-0.23437 14.43886,-7.21239 13.4223,-15.99514 -0.71154,-6.17745 -4.73521,-11.75548 -9.80361,-14.76239 z m -11.70973,9.68957 c 2.76773,1.89516 5.23504,5.78016 5.17309,10.51035 -0.0254,2.01133 -0.59374,3.92968 -1.53399,5.63902 -5.12231,-1.20618 -9.6464,-5.21027 -11.11851,-9.46747 -1.71099,-4.94159 0.76842,-8.51835 4.68367,-7.8791 0.91613,0.15147 1.87308,0.56574 2.79574,1.1972 z m -8.20123,13.09785 c 2.35319,2.89626 5.50982,5.18587 8.98998,6.56316 -1.84651,1.55852 -4.15926,2.62474 -6.81682,2.84529 -0.41665,0.0386 -0.82199,0.0148 -1.2414,0.003 0.18385,-0.82855 0.29728,-1.68721 0.33759,-2.56772 0.10066,-2.40657 -0.40168,-4.73105 -1.26935,-6.84348 z m -7.95187,-3.74326 c 2.43829,1.15153 5.12888,4.70953 4.9268,9.3779 -0.0405,1.02772 -0.28072,2.02064 -0.61951,2.97732 -3.82982,-1.32822 -6.96291,-4.06794 -8.179,-6.81007 -0.87348,-1.9488 -0.76208,-3.53525 -0.16875,-4.58711 0.59278,-1.05021 1.6084,-1.56989 3.01927,-1.30268 0.33125,0.0632 0.67398,0.18155 1.02119,0.34466 z m -5.34322,10.35649 c 1.94272,2.38845 4.52487,4.3541 7.45675,5.65405 -1.70209,1.81328 -4.07073,3.04222 -6.82674,3.1971 -0.0844,0.011 -0.16046,-0.003 -0.24209,1.5e-4 0.42061,-1.16555 0.67243,-2.42686 0.68224,-3.77636 0.0103,-1.76168 -0.40744,-3.48136 -1.07016,-5.07492 z m -6.51144,-2.35854 c 1.71319,1.11919 3.29,3.45717 3.27575,6.40471 -0.001,1.41317 -0.45602,2.76566 -1.2257,3.8903 -2.99387,-1.23692 -5.39553,-3.52242 -6.30246,-5.78479 -1.33374,-3.30966 0.22234,-5.49054 2.55563,-5.17824 0.54884,0.0757 1.12849,0.29653 1.69675,0.668 z" />
    <path
       inkscape:connector-curvature="0"
       id="path2383"
       style="fill:#ffaaaa;stroke:#000000;stroke-width:3.64144778;stroke-linecap:round;stroke-linejoin:round"
       d="m 208.07526,160.49293 c 0.0178,56.31908 -43.65779,101.98118 -97.5288,101.98118 -53.87992,0 -97.555512,-45.6621 -97.537703,-101.98118 -0.01781,-56.32001 43.657783,-101.981179 97.537703,-101.981179 53.87101,-0.0019 97.54661,45.661169 97.5288,101.981179 z" />
    <path
       inkscape:connector-curvature="0"
       id="path3221"
       style="fill:#000000;fill-opacity:0.31373004"
       d="m 202.18061,125.51293 c 0.0712,1.56457 0.11576,3.158 0.11576,4.74026 0,56.27254 -43.6934,101.94395 -97.53771,101.94395 -42.081718,0 -77.99276,-27.9222 -91.651956,-66.98536 2.359639,54.09461 45.118088,97.23441 97.439756,97.23441 53.8443,0 97.5377,-45.67141 97.5377,-101.94395 0,-12.28577 -2.08361,-24.07824 -5.90355,-34.98931 z" />
    <path
       inkscape:connector-curvature="0"
       id="path3172"
       style="fill:#412424;stroke:#000000;stroke-width:3.64144778;stroke-linecap:round;stroke-linejoin:round"
       d="m 117.83018,263.40485 c 0,8.46043 13.0537,8.73035 29.14377,8.73035 16.09007,0 29.15268,0.64221 29.15268,-8.73035 0,-16.49271 -13.06261,-29.87675 -29.15268,-29.87675 -16.09007,0 -29.14377,13.38404 -29.14377,29.87675 z" />
    <path
       inkscape:connector-curvature="0"
       id="path3174"
       style="fill:#000000;fill-opacity:0.31373004;fill-rule:evenodd;stroke:#000000;stroke-width:3.64144778;stroke-linejoin:round"
       d="m 158.18446,271.57675 c 0,-15.23621 -8.40566,-24.60876 -8.40566,-24.60876 0,0 3.36583,12.89074 2.80486,24.60876 h 5.6008 z" />
    <path
       inkscape:connector-curvature="0"
       id="path3329"
       style="fill:#412424;stroke:#000000;stroke-width:3.64144778;stroke-linecap:round;stroke-linejoin:round"
       d="m 104.47373,263.40485 c 0,8.46043 -13.062612,8.73035 -29.152682,8.73035 -16.09007,0 -29.143774,0.64221 -29.143774,-8.73035 0,-16.49271 13.053704,-29.87675 29.143774,-29.87675 16.09007,0 29.152682,13.38404 29.152682,29.87675 z" />
    <path
       inkscape:connector-curvature="0"
       id="path3331"
       style="fill:#000000;fill-opacity:0.31373004;fill-rule:evenodd;stroke:#000000;stroke-width:3.64144778;stroke-linejoin:round"
       d="m 64.110534,271.57675 c 0,-15.23621 8.414564,-24.60876 8.414564,-24.60876 0,0 -3.365826,12.89074 -2.804855,24.60876 h -5.609709 z" />
    <g
       id="g4318"
       transform="matrix(-0.89043,0,0,0.93074,-279.16804,42.324)">
      <path
         inkscape:connector-curvature="0"
         id="path4320"
         d="m -411.77,11.248 c -7.04,6.405 0.53,16.456 10.13,28.588 9.6,12.132 16.85,22.466 24.65,15.368 13.72,-12.482 33.1,-47.06 23.5,-59.191 -9.6,-12.132 -44.56,2.7529 -58.28,15.235 z"
         sodipodi:nodetypes="csssc"
         style="fill:#ffaaaa;stroke:#000000;stroke-width:3.7822001;stroke-linecap:round;stroke-linejoin:round" />
      <path
         inkscape:connector-curvature="0"
         id="path4322"
         style="fill:none;stroke:#000000;stroke-width:3.5;stroke-linecap:round;stroke-linejoin:round"
         d="m -385.22,9.4402 c 5.45,-3.9877 19.6,-6.9172 27.9,-8.2992" />
    </g>
    <g
       transform="matrix(0.89043,0,0,0.93074,500.35,42.324)"
       id="g4314">
      <path
         inkscape:connector-curvature="0"
         id="path4310"
         sodipodi:nodetypes="csssc"
         style="fill:#ffaaaa;stroke:#000000;stroke-width:3.7822001;stroke-linecap:round;stroke-linejoin:round"
         d="m -411.77,11.248 c -7.04,6.405 0.53,16.456 10.13,28.588 9.6,12.132 16.85,22.466 24.65,15.368 13.72,-12.482 33.1,-47.06 23.5,-59.191 -9.6,-12.132 -44.56,2.7529 -58.28,15.235 z" />
      <path
         inkscape:connector-curvature="0"
         id="path4312"
         style="fill:none;stroke:#000000;stroke-width:3.5;stroke-linecap:round;stroke-linejoin:round"
         d="m -385.22,9.4402 c 5.45,-3.9877 19.6,-6.9172 27.9,-8.2992" />
    </g>
    <path
       inkscape:connector-curvature="0"
       id="path4252"
       style="fill:#ffaaaa;stroke:#000000;stroke-width:2.75958014;stroke-linecap:round;stroke-linejoin:round"
       d="m 184.78161,113.51444 c 0.0178,42.49014 -33.23085,76.94614 -74.23515,76.94614 -41.013207,0 -74.252959,-34.456 -74.244054,-76.94614 -0.0089,-42.491072 33.230847,-76.943344 74.244054,-76.943344 41.0043,-9.3e-5 74.25296,34.452272 74.23515,76.943344 z" />
    <path
       inkscape:connector-curvature="0"
       id="path4250"
       style="fill:#ffaaaa;stroke:#000000;stroke-width:2.45797729;stroke-linecap:round;stroke-linejoin:round"
       d="m 142.12111,149.83378 c 0.009,14.44508 -14.13113,26.15379 -31.57465,26.15379 -17.452429,0 -31.592457,-11.70871 -31.583553,-26.15379 -0.0089,-14.44136 14.131124,-26.15194 31.583553,-26.15194 17.44352,0 31.58355,11.71058 31.57465,26.15194 z" />
    <path
       d="m 154.64174,93.40639 c 0,10.94714 -8.48463,19.82362 -18.95765,19.82362 -10.47302,0 -18.97001,-8.87648 -18.95766,-19.82362 -0.0123,-10.948432 8.48464,-19.824911 18.95766,-19.824911 10.47302,0 18.95765,8.876479 18.95765,19.824911 z"
       style="fill:#ffffff;stroke:#000000;stroke-width:3.42133594;stroke-linecap:round;stroke-linejoin:round"
       id="path4277"
       inkscape:connector-curvature="0" />
    <path
       d="m 143.07316,94.13688 c 0,5.177381 -4.01228,9.37496 -8.95316,9.37496 -4.95841,0 -8.97069,-4.197579 -8.97069,-9.37496 0,-5.175548 4.01228,-9.373127 8.97069,-9.373127 4.94088,0 8.95316,4.197579 8.95316,9.373127 z"
       style="fill:#000000"
       id="path4279"
       inkscape:connector-curvature="0" />
    <g
       id="g4281"
       transform="matrix(1.2350264,0,0,1.2909364,-29.446946,20.898365)">
      <path
         inkscape:connector-curvature="0"
         id="path4283"
         style="fill:#ffffff;stroke:#000000;stroke-width:2.70959997;stroke-linecap:round;stroke-linejoin:round"
         d="m 107.1,56.167 c 0,8.48 -6.87,15.356 -15.353,15.356 -8.481,0 -15.354,-6.876 -15.352,-15.356 -0.002,-8.481 6.871,-15.357 15.352,-15.357 8.483,0 15.353,6.876 15.353,15.357 z" />
      <path
         inkscape:connector-curvature="0"
         id="path4285"
         style="fill:#000000"
         d="m 100.7,58.876 c 0,2.827 -2.289,5.119 -5.115,5.119 -2.827,0 -5.118,-2.292 -5.118,-5.119 0,-2.826 2.291,-5.118 5.118,-5.118 2.826,0 5.115,2.292 5.115,5.118 z" />
    </g>
    <path
       inkscape:connector-curvature="0"
       id="path4287"
       sodipodi:nodetypes="ccsscssc"
       style="fill:#000000;fill-opacity:0.31373004"
       d="m 180.68563,89.107646 -1.76305,2.626548 c 0.23151,3.039797 0.32055,6.131715 0.32055,9.268306 0,44.66156 -45.40302,81.72363 -76.78178,76.86517 -26.134116,-4.04872 -50.727793,-14.61262 -64.769874,-47.08056 7.141249,39.78355 47.050322,64.45747 69.284354,64.22479 49.30311,-0.51191 76.78178,-34.73522 76.78178,-79.39678 0,-9.28506 -1.00618,-18.200619 -3.07198,-26.507474 z" />
    <path
       inkscape:connector-curvature="0"
       id="path4328"
       style="fill:#000000"
       d="m 130.66127,148.40044 c 0.009,3.6485 -2.82266,6.60825 -6.31315,6.60825 -3.49048,0 -6.32205,-2.95975 -6.32205,-6.60825 0,-3.6485 2.83157,-6.60826 6.32205,-6.60826 3.49049,0 6.32206,2.95976 6.31315,6.60826 z" />
    <path
       inkscape:connector-curvature="0"
       id="path4334"
       style="fill:#000000"
       d="m 107.786,145.40352 c 0,5.30314 -4.11572,9.60517 -9.189174,9.60517 -5.073461,0 -9.189175,-4.30203 -9.189175,-9.60517 0,-5.30313 4.115714,-9.60517 9.189175,-9.60517 5.073454,0 9.189174,4.30204 9.189174,9.60517 z" />
  </g>
  <metadata
     id="metadata29">
    <rdf:RDF>
      <cc:Work>
        <dc:format>image/svg+xml</dc:format>
        <dc:type
           rdf:resource="http://purl.org/dc/dcmitype/StillImage" />
        <cc:license
           rdf:resource="http://creativecommons.org/licenses/publicdomain/" />
        <dc:publisher>
          <cc:Agent
             rdf:about="http://openclipart.org/">
            <dc:title>Openclipart</dc:title>
          </cc:Agent>
        </dc:publisher>
        <dc:title>Pig-RoundCartoon</dc:title>
        <dc:date>2009-05-14T16:30:50</dc:date>
        <dc:description>lemmling's cow, recoloured; kattekrab's pig tail; linuxian's pig head as source</dc:description>
        <dc:source>https://openclipart.org/detail/26011/pig-roundcartoon-by-bloodsong</dc:source>
        <dc:creator>
          <cc:Agent>
            <dc:title>bloodsong</dc:title>
          </cc:Agent>
        </dc:creator>
        <dc:subject>
          <rdf:Bag>
            <rdf:li>animal</rdf:li>
            <rdf:li>cartoon</rdf:li>
            <rdf:li>colour</rdf:li>
            <rdf:li>icon</rdf:li>
            <rdf:li>outline</rdf:li>
            <rdf:li>pig</rdf:li>
            <rdf:li>remix</rdf:li>
          </rdf:Bag>
        </dc:subject>
      </cc:Work>
      <cc:License
         rdf:about="http://creativecommons.org/licenses/publicdomain/">
        <cc:permits
           rdf:resource="http://creativecommons.org/ns#Reproduction" />
        <cc:permits
           rdf:resource="http://creativecommons.org/ns#Distribution" />
        <cc:permits
           rdf:resource="http://creativecommons.org/ns#DerivativeWorks" />
      </cc:License>
    </rdf:RDF>
  </metadata>
  <g
     id="g3905"
     transform="translate(-2.6693327,-1.6324374)">
    <path
       style="fill:#ffffff;fill-opacity:1;stroke:#000000;stroke-width:3;stroke-miterlimit:4;stroke-opacity:1;stroke-dasharray:none"
       d="m 115.74248,196.69896 c 3.92039,7.47199 0.85202,13.10504 -8.57608,17.06465 -11.545399,4.24505 -19.082637,9.90587 -20.26923,16.27537 l 0,0.0764 c -2.513024,14.21424 27.60404,26.48517 67.37053,27.43127 39.86169,0.94837 74.29966,-9.82407 76.95343,-24.06921 2.65376,-14.24516 -27.50885,-26.55931 -67.37055,-27.50768 -13.93738,-0.33159 -27.19108,0.75912 -38.67998,2.9418 -2.41915,-9.63122 -9.42812,-12.21261 -9.42812,-12.21261 z"
       id="path4443"
       inkscape:connector-curvature="0"
       sodipodi:nodetypes="ccccssscc" />
    <g
       id="text3888"
       style="font-size:40px;font-style:normal;font-weight:normal;line-height:125%;letter-spacing:0px;word-spacing:0px;fill:#ffffff;fill-opacity:1;stroke:#000000;font-family:Sans">
      <path
         id="path3893"
         d="m 126.7527,241.89532 0,-7.83203 -6.44531,0 0,-3.24218 10.35156,0 0,12.51953 c -1.52346,1.08073 -3.20315,1.90104 -5.03906,2.46093 -1.83596,0.54688 -3.79559,0.82032 -5.87891,0.82032 -4.5573,0 -8.12501,-1.32813 -10.70312,-3.98438 -2.56511,-2.66926 -3.84766,-6.3802 -3.84766,-11.13281 0,-4.76561 1.28255,-8.47654 3.84766,-11.13281 2.57811,-2.66925 6.14582,-4.00388 10.70312,-4.00391 1.90103,3e-5 3.70441,0.23441 5.41016,0.70313 1.71872,0.46877 3.30075,1.15888 4.74609,2.07031 l 0,4.19922 c -1.45836,-1.23696 -3.00783,-2.16795 -4.64844,-2.79297 -1.64064,-0.62498 -3.3659,-0.93748 -5.17578,-0.9375 -3.56772,2e-5 -6.25001,0.99612 -8.04687,2.98828 -1.78386,1.99221 -2.67579,4.96096 -2.67578,8.90625 -10e-6,3.9323 0.89192,6.89454 2.67578,8.88672 1.79686,1.99219 4.47915,2.98828 8.04687,2.98828 1.39321,0 2.6367,-0.11719 3.73047,-0.35156 1.09373,-0.2474 2.0768,-0.625 2.94922,-1.13282"
         inkscape:connector-curvature="0" />
      <path
         id="path3895"
         d="m 150.40504,227.53986 c -0.40366,-0.23436 -0.84637,-0.40363 -1.32812,-0.50782 -0.46877,-0.11716 -0.9896,-0.17576 -1.5625,-0.17578 -2.03126,2e-5 -3.59376,0.66408 -4.6875,1.99219 -1.08074,1.31512 -1.6211,3.20965 -1.62109,5.68359 l 0,11.52344 -3.61329,0 0,-21.875 3.61329,0 0,3.39844 c 0.7552,-1.32811 1.73827,-2.31118 2.94921,-2.94922 1.21093,-0.65102 2.68228,-0.97654 4.41407,-0.97656 0.24738,2e-5 0.52082,0.0195 0.82031,0.0586 0.29946,0.0261 0.63149,0.0716 0.99609,0.13672 l 0.0195,3.69141"
         inkscape:connector-curvature="0" />
      <path
         id="path3897"
         d="m 153.84254,237.42267 0,-13.24219 3.59375,0 0,13.10547 c 0,2.07032 0.40364,3.62631 1.21094,4.66797 0.80728,1.02865 2.01822,1.54297 3.63281,1.54297 1.94009,0 3.47004,-0.61849 4.58985,-1.85547 1.13279,-1.23698 1.6992,-2.92317 1.69922,-5.0586 l 0,-12.40234 3.59375,0 0,21.875 -3.59375,0 0,-3.35937 c -0.87242,1.32812 -1.88804,2.31771 -3.04688,2.96875 -1.14585,0.63802 -2.48048,0.95703 -4.0039,0.95703 -2.51303,0 -4.42058,-0.78125 -5.72266,-2.34375 -1.30209,-1.5625 -1.95313,-3.84765 -1.95313,-6.85547 m 9.04297,-13.76953 0,0"
         inkscape:connector-curvature="0" />
      <path
         id="path3899"
         d="m 179.60426,224.18048 3.59375,0 0,21.875 -3.59375,0 0,-21.875 m 0,-8.51562 3.59375,0 0,4.55078 -3.59375,0 0,-4.55078"
         inkscape:connector-curvature="0" />
      <path
         id="path3901"
         d="m 192.96364,241.09454 3.96484,0 0,4.96094 -3.96484,0 0,-4.96094 m 0,-24.19922 3.96484,0 0,12.79297 -0.39062,6.97266 -3.16407,0 -0.41015,-6.97266 0,-12.79297"
         inkscape:connector-curvature="0" />
      <path
         id="path3903"
         d="m 208.97926,241.09454 3.96485,0 0,4.96094 -3.96485,0 0,-4.96094 m 0,-24.19922 3.96485,0 0,12.79297 -0.39063,6.97266 -3.16406,0 -0.41016,-6.97266 0,-12.79297"
         inkscape:connector-curvature="0" />
    </g>
  </g>
</svg>
